<svg width="40" height="40" viewBox="0 0 40 40" fill="none" xmlns="http://www.w3.org/2000/svg">
<path d="M32.3594 30.4844C33.1036 29.8699 33.6401 29.0407 33.8955 28.1099C34.1508 27.1791 34.1126 26.1922 33.7862 25.284C33.4597 24.3757 32.8608 23.5904 32.0713 23.0352C31.2818 22.4801 30.3402 22.1822 29.375 22.1822C28.4098 22.1822 27.4682 22.4801 26.6787 23.0352C25.8892 23.5904 25.2903 24.3757 24.9638 25.284C24.6374 26.1922 24.5992 27.1791 24.8545 28.1099C25.1099 29.0407 25.6464 29.8699 26.3906 30.4844C25.7103 30.8801 25.1155 31.4071 24.6407 32.0348C24.1659 32.6625 23.8207 33.3783 23.625 34.1406C23.5632 34.381 23.5993 34.636 23.7252 34.8498C23.8512 35.0636 24.0567 35.2188 24.2969 35.2812L24.5312 35.3125C24.7388 35.3122 24.9404 35.243 25.1045 35.1157C25.2685 34.9885 25.3856 34.8104 25.4375 34.6094C25.6599 33.7338 26.1678 32.9573 26.8809 32.4026C27.594 31.848 28.4716 31.5469 29.375 31.5469C30.2784 31.5469 31.156 31.848 31.8691 32.4026C32.5822 32.9573 33.0901 33.7338 33.3125 34.6094C33.3375 34.7344 33.3878 34.8529 33.4603 34.9578C33.5327 35.0627 33.6257 35.1518 33.7338 35.2195C33.8418 35.2872 33.9625 35.3322 34.0884 35.3517C34.2144 35.3711 34.343 35.3647 34.4665 35.3328C34.5899 35.3009 34.7055 35.2441 34.8062 35.166C34.907 35.0879 34.9907 34.9901 35.0524 34.8785C35.114 34.7669 35.1522 34.6439 35.1647 34.517C35.1772 34.3902 35.1637 34.2621 35.125 34.1406C34.9293 33.3783 34.5841 32.6625 34.1093 32.0348C33.6345 31.4071 33.0397 30.8801 32.3594 30.4844ZM26.5625 26.875C26.5625 26.3187 26.7275 25.775 27.0365 25.3125C27.3455 24.8499 27.7848 24.4895 28.2987 24.2766C28.8126 24.0637 29.3781 24.008 29.9237 24.1165C30.4693 24.2251 30.9704 24.4929 31.3637 24.8863C31.7571 25.2796 32.0249 25.7807 32.1335 26.3263C32.242 26.8719 32.1863 27.4374 31.9734 27.9513C31.7605 28.4652 31.4001 28.9045 30.9375 29.2135C30.475 29.5225 29.9313 29.6875 29.375 29.6875C28.6303 29.6834 27.9174 29.3858 27.3908 28.8592C26.8642 28.3326 26.5666 27.6197 26.5625 26.875ZM33.75 11.5625H20.3906L16.0312 7.20312C15.6181 6.79717 15.0635 6.56748 14.4844 6.5625H6.25C5.66984 6.5625 5.11344 6.79297 4.7032 7.2032C4.29297 7.61344 4.0625 8.16984 4.0625 8.75V31.3438C4.0625 31.6187 4.11666 31.891 4.22188 32.145C4.3271 32.399 4.48132 32.6298 4.67575 32.8243C4.87017 33.0187 5.10098 33.1729 5.35501 33.2781C5.60903 33.3833 5.8813 33.4375 6.15625 33.4375H18.8438C19.0924 33.4375 19.3308 33.3387 19.5067 33.1629C19.6825 32.9871 19.7812 32.7486 19.7812 32.5C19.7812 32.2514 19.6825 32.0129 19.5067 31.8371C19.3308 31.6613 19.0924 31.5625 18.8438 31.5625H6.15625C6.09823 31.5625 6.04259 31.5395 6.00157 31.4984C5.96055 31.4574 5.9375 31.4018 5.9375 31.3438V13.4375H33.75C33.8329 13.4375 33.9124 13.4704 33.971 13.529C34.0296 13.5876 34.0625 13.6671 34.0625 13.75V18.75C34.0625 18.9986 34.1613 19.2371 34.3371 19.4129C34.5129 19.5887 34.7514 19.6875 35 19.6875C35.2486 19.6875 35.4871 19.5887 35.6629 19.4129C35.8387 19.2371 35.9375 18.9986 35.9375 18.75V13.75C35.9375 13.1698 35.707 12.6134 35.2968 12.2032C34.8866 11.793 34.3302 11.5625 33.75 11.5625ZM6.25 8.4375H14.4844C14.5668 8.43867 14.6454 8.47237 14.7031 8.53125L17.7344 11.5625H5.9375V8.75C5.9375 8.66712 5.97042 8.58763 6.02903 8.52903C6.08763 8.47042 6.16712 8.4375 6.25 8.4375Z" fill="black"/>
</svg>
