<svg width="1153" height="327" viewBox="0 0 1153 327" fill="none" xmlns="http://www.w3.org/2000/svg">
<line x1="736.926" y1="17" x2="679.926" y2="17" stroke="#ECE9F1" stroke-width="4" stroke-linecap="round" stroke-linejoin="round"/>
<path d="M776.018 14.048C776.018 12.56 774.95 11.456 773.282 11.456H770.042V20H771.338V16.64H773.282C774.95 16.64 776.018 15.536 776.018 14.048ZM774.722 14.048C774.722 14.948 774.11 15.464 773.21 15.464H771.338V12.62H773.21C774.11 12.62 774.722 13.148 774.722 14.048ZM781.717 14.42C781.297 14 780.853 13.844 780.265 13.844C779.581 13.844 778.957 14.144 778.645 14.576V13.916H777.445V20H778.669V16.304C778.669 15.464 779.221 14.936 779.881 14.936C780.301 14.936 780.517 15.068 780.793 15.344L781.717 14.42ZM787.131 16.952C787.131 15.932 786.987 15.164 786.411 14.564C786.015 14.156 785.415 13.844 784.587 13.844C783.759 13.844 783.171 14.156 782.775 14.564C782.199 15.164 782.055 15.932 782.055 16.952C782.055 17.984 782.199 18.752 782.775 19.352C783.171 19.76 783.759 20.072 784.587 20.072C785.415 20.072 786.015 19.76 786.411 19.352C786.987 18.752 787.131 17.984 787.131 16.952ZM785.907 16.952C785.907 17.612 785.859 18.248 785.487 18.62C785.259 18.848 784.947 18.98 784.587 18.98C784.227 18.98 783.927 18.848 783.699 18.62C783.327 18.248 783.279 17.612 783.279 16.952C783.279 16.292 783.327 15.656 783.699 15.284C783.927 15.056 784.227 14.936 784.587 14.936C784.947 14.936 785.259 15.056 785.487 15.284C785.859 15.656 785.907 16.292 785.907 16.952ZM793.255 13.916H791.959L790.531 18.2L789.091 13.916H787.795L790.027 20H791.023L793.255 13.916ZM795.544 20V13.916H794.32V20H795.544ZM795.58 12.716V11.42H794.284V12.716H795.58ZM801.984 18.14C801.984 17.06 801.312 16.52 800.172 16.424L799.212 16.34C798.564 16.28 798.372 16.004 798.372 15.644C798.372 15.188 798.744 14.864 799.476 14.864C800.052 14.864 800.592 14.984 800.976 15.308L801.744 14.528C801.18 14.036 800.4 13.844 799.488 13.844C798.216 13.844 797.196 14.516 797.196 15.704C797.196 16.772 797.856 17.288 798.996 17.384L799.968 17.468C800.556 17.516 800.784 17.78 800.784 18.188C800.784 18.764 800.196 19.028 799.452 19.028C798.852 19.028 798.192 18.896 797.7 18.392L796.896 19.196C797.616 19.904 798.456 20.072 799.452 20.072C800.904 20.072 801.984 19.412 801.984 18.14ZM804.696 20V13.916H803.472V20H804.696ZM804.732 12.716V11.42H803.436V12.716H804.732ZM811.424 16.952C811.424 15.932 811.28 15.164 810.704 14.564C810.308 14.156 809.708 13.844 808.88 13.844C808.052 13.844 807.464 14.156 807.068 14.564C806.492 15.164 806.348 15.932 806.348 16.952C806.348 17.984 806.492 18.752 807.068 19.352C807.464 19.76 808.052 20.072 808.88 20.072C809.708 20.072 810.308 19.76 810.704 19.352C811.28 18.752 811.424 17.984 811.424 16.952ZM810.2 16.952C810.2 17.612 810.152 18.248 809.78 18.62C809.552 18.848 809.24 18.98 808.88 18.98C808.52 18.98 808.22 18.848 807.992 18.62C807.62 18.248 807.572 17.612 807.572 16.952C807.572 16.292 807.62 15.656 807.992 15.284C808.22 15.056 808.52 14.936 808.88 14.936C809.24 14.936 809.552 15.056 809.78 15.284C810.152 15.656 810.2 16.292 810.2 16.952ZM818.013 20V16.112C818.013 15.428 817.869 14.852 817.401 14.396C817.041 14.048 816.525 13.844 815.901 13.844C815.289 13.844 814.701 14.072 814.281 14.528V13.916H813.081V20H814.305V16.292C814.305 15.356 814.881 14.936 815.565 14.936C816.249 14.936 816.789 15.344 816.789 16.292V20H818.013ZM824.402 18.14C824.402 17.06 823.73 16.52 822.59 16.424L821.63 16.34C820.982 16.28 820.79 16.004 820.79 15.644C820.79 15.188 821.162 14.864 821.894 14.864C822.47 14.864 823.01 14.984 823.394 15.308L824.162 14.528C823.598 14.036 822.818 13.844 821.906 13.844C820.634 13.844 819.614 14.516 819.614 15.704C819.614 16.772 820.274 17.288 821.414 17.384L822.386 17.468C822.974 17.516 823.202 17.78 823.202 18.188C823.202 18.764 822.614 19.028 821.87 19.028C821.27 19.028 820.61 18.896 820.118 18.392L819.314 19.196C820.034 19.904 820.874 20.072 821.87 20.072C823.322 20.072 824.402 19.412 824.402 18.14ZM836.453 20V11.456H835.157L832.709 16.772L830.213 11.456H828.917V20H830.213V14.288L832.229 18.452H833.189L835.157 14.288V20H836.453ZM843.323 16.952C843.323 15.932 843.179 15.164 842.603 14.564C842.207 14.156 841.607 13.844 840.779 13.844C839.951 13.844 839.363 14.156 838.967 14.564C838.391 15.164 838.247 15.932 838.247 16.952C838.247 17.984 838.391 18.752 838.967 19.352C839.363 19.76 839.951 20.072 840.779 20.072C841.607 20.072 842.207 19.76 842.603 19.352C843.179 18.752 843.323 17.984 843.323 16.952ZM842.099 16.952C842.099 17.612 842.051 18.248 841.679 18.62C841.451 18.848 841.139 18.98 840.779 18.98C840.419 18.98 840.119 18.848 839.891 18.62C839.519 18.248 839.471 17.612 839.471 16.952C839.471 16.292 839.519 15.656 839.891 15.284C840.119 15.056 840.419 14.936 840.779 14.936C841.139 14.936 841.451 15.056 841.679 15.284C842.051 15.656 842.099 16.292 842.099 16.952ZM849.912 20V16.112C849.912 15.428 849.768 14.852 849.3 14.396C848.94 14.048 848.424 13.844 847.8 13.844C847.188 13.844 846.6 14.072 846.18 14.528V13.916H844.98V20H846.204V16.292C846.204 15.356 846.78 14.936 847.464 14.936C848.148 14.936 848.688 15.344 848.688 16.292V20H849.912ZM854.344 20V18.956H853.84C853.384 18.956 853.168 18.692 853.168 18.248V14.96H854.344V14.024H853.168V12.176H851.944V14.024H851.248V14.96H851.944V18.308C851.944 19.184 852.472 20 853.612 20H854.344ZM860.81 20V16.076C860.81 14.756 860.054 13.844 858.698 13.844C858.098 13.844 857.546 14.072 857.126 14.528V11.456H855.902V20H857.126V16.268C857.126 15.356 857.678 14.936 858.362 14.936C859.046 14.936 859.586 15.344 859.586 16.268V20H860.81Z" fill="#D0D1D2"/>
<rect x="892.426" y="0.5" width="125" height="29" rx="3.5" fill="white"/>
<path d="M912.902 10.312V20H911.628V12.776L908.408 20H907.512L904.278 12.762V20H903.004V10.312H904.376L907.96 18.32L911.544 10.312H912.902ZM914.586 16.136C914.586 15.352 914.745 14.666 915.062 14.078C915.38 13.4807 915.814 13.0187 916.364 12.692C916.924 12.3653 917.545 12.202 918.226 12.202C918.898 12.202 919.482 12.3467 919.976 12.636C920.471 12.9253 920.84 13.2893 921.082 13.728V12.328H922.37V20H921.082V18.572C920.83 19.02 920.452 19.3933 919.948 19.692C919.454 19.9813 918.875 20.126 918.212 20.126C917.531 20.126 916.915 19.958 916.364 19.622C915.814 19.286 915.38 18.8147 915.062 18.208C914.745 17.6013 914.586 16.9107 914.586 16.136ZM921.082 16.15C921.082 15.5713 920.966 15.0673 920.732 14.638C920.499 14.2087 920.182 13.882 919.78 13.658C919.388 13.4247 918.954 13.308 918.478 13.308C918.002 13.308 917.568 13.42 917.176 13.644C916.784 13.868 916.472 14.1947 916.238 14.624C916.005 15.0533 915.888 15.5573 915.888 16.136C915.888 16.724 916.005 17.2373 916.238 17.676C916.472 18.1053 916.784 18.4367 917.176 18.67C917.568 18.894 918.002 19.006 918.478 19.006C918.954 19.006 919.388 18.894 919.78 18.67C920.182 18.4367 920.499 18.1053 920.732 17.676C920.966 17.2373 921.082 16.7287 921.082 16.15ZM925.797 13.574C926.021 13.1353 926.339 12.7947 926.749 12.552C927.169 12.3093 927.678 12.188 928.275 12.188V13.504H927.939C926.511 13.504 925.797 14.2787 925.797 15.828V20H924.523V12.328H925.797V13.574ZM929.27 16.15C929.27 15.3567 929.429 14.666 929.746 14.078C930.063 13.4807 930.502 13.0187 931.062 12.692C931.631 12.3653 932.28 12.202 933.008 12.202C933.951 12.202 934.725 12.4307 935.332 12.888C935.948 13.3453 936.354 13.98 936.55 14.792H935.178C935.047 14.3253 934.791 13.9567 934.408 13.686C934.035 13.4153 933.568 13.28 933.008 13.28C932.28 13.28 931.692 13.532 931.244 14.036C930.796 14.5307 930.572 15.2353 930.572 16.15C930.572 17.074 930.796 17.788 931.244 18.292C931.692 18.796 932.28 19.048 933.008 19.048C933.568 19.048 934.035 18.9173 934.408 18.656C934.781 18.3947 935.038 18.0213 935.178 17.536H936.55C936.345 18.32 935.934 18.95 935.318 19.426C934.702 19.8927 933.932 20.126 933.008 20.126C932.28 20.126 931.631 19.9627 931.062 19.636C930.502 19.3093 930.063 18.8473 929.746 18.25C929.429 17.6527 929.27 16.9527 929.27 16.15ZM942.058 12.188C942.637 12.188 943.159 12.314 943.626 12.566C944.093 12.8087 944.457 13.1773 944.718 13.672C944.989 14.1667 945.124 14.7687 945.124 15.478V20H943.864V15.66C943.864 14.8947 943.673 14.3113 943.29 13.91C942.907 13.4993 942.385 13.294 941.722 13.294C941.05 13.294 940.513 13.504 940.112 13.924C939.72 14.344 939.524 14.9553 939.524 15.758V20H938.25V9.64H939.524V13.42C939.776 13.028 940.121 12.7247 940.56 12.51C941.008 12.2953 941.507 12.188 942.058 12.188ZM950.573 18.978C951.759 18.026 952.687 17.2467 953.359 16.64C954.031 16.024 954.596 15.3847 955.053 14.722C955.52 14.05 955.753 13.392 955.753 12.748C955.753 12.1413 955.604 11.6653 955.305 11.32C955.016 10.9653 954.545 10.788 953.891 10.788C953.257 10.788 952.762 10.9887 952.407 11.39C952.062 11.782 951.875 12.3093 951.847 12.972H950.615C950.653 11.9267 950.97 11.1193 951.567 10.55C952.165 9.98067 952.935 9.696 953.877 9.696C954.839 9.696 955.599 9.962 956.159 10.494C956.729 11.026 957.013 11.7587 957.013 12.692C957.013 13.4667 956.78 14.2227 956.313 14.96C955.856 15.688 955.333 16.332 954.745 16.892C954.157 17.4427 953.406 18.0867 952.491 18.824H957.307V19.888H950.573V18.978ZM958.78 14.834C958.78 13.2287 959.042 11.978 959.564 11.082C960.087 10.1767 961.002 9.724 962.308 9.724C963.606 9.724 964.516 10.1767 965.038 11.082C965.561 11.978 965.822 13.2287 965.822 14.834C965.822 16.4673 965.561 17.7367 965.038 18.642C964.516 19.5473 963.606 20 962.308 20C961.002 20 960.087 19.5473 959.564 18.642C959.042 17.7367 958.78 16.4673 958.78 14.834ZM964.562 14.834C964.562 14.022 964.506 13.336 964.394 12.776C964.292 12.2067 964.072 11.7493 963.736 11.404C963.41 11.0587 962.934 10.886 962.308 10.886C961.674 10.886 961.188 11.0587 960.852 11.404C960.526 11.7493 960.306 12.2067 960.194 12.776C960.092 13.336 960.04 14.022 960.04 14.834C960.04 15.674 960.092 16.3787 960.194 16.948C960.306 17.5173 960.526 17.9747 960.852 18.32C961.188 18.6653 961.674 18.838 962.308 18.838C962.934 18.838 963.41 18.6653 963.736 18.32C964.072 17.9747 964.292 17.5173 964.394 16.948C964.506 16.3787 964.562 15.674 964.562 14.834ZM967.417 18.978C968.603 18.026 969.531 17.2467 970.203 16.64C970.875 16.024 971.44 15.3847 971.897 14.722C972.364 14.05 972.597 13.392 972.597 12.748C972.597 12.1413 972.448 11.6653 972.149 11.32C971.86 10.9653 971.389 10.788 970.735 10.788C970.101 10.788 969.606 10.9887 969.251 11.39C968.906 11.782 968.719 12.3093 968.691 12.972H967.459C967.497 11.9267 967.814 11.1193 968.411 10.55C969.009 9.98067 969.779 9.696 970.721 9.696C971.683 9.696 972.443 9.962 973.003 10.494C973.573 11.026 973.857 11.7587 973.857 12.692C973.857 13.4667 973.624 14.2227 973.157 14.96C972.7 15.688 972.177 16.332 971.589 16.892C971.001 17.4427 970.25 18.0867 969.335 18.824H974.151V19.888H967.417V18.978ZM975.624 14.834C975.624 13.2287 975.885 11.978 976.408 11.082C976.931 10.1767 977.845 9.724 979.152 9.724C980.449 9.724 981.359 10.1767 981.882 11.082C982.405 11.978 982.666 13.2287 982.666 14.834C982.666 16.4673 982.405 17.7367 981.882 18.642C981.359 19.5473 980.449 20 979.152 20C977.845 20 976.931 19.5473 976.408 18.642C975.885 17.7367 975.624 16.4673 975.624 14.834ZM981.406 14.834C981.406 14.022 981.35 13.336 981.238 12.776C981.135 12.2067 980.916 11.7493 980.58 11.404C980.253 11.0587 979.777 10.886 979.152 10.886C978.517 10.886 978.032 11.0587 977.696 11.404C977.369 11.7493 977.15 12.2067 977.038 12.776C976.935 13.336 976.884 14.022 976.884 14.834C976.884 15.674 976.935 16.3787 977.038 16.948C977.15 17.5173 977.369 17.9747 977.696 18.32C978.032 18.6653 978.517 18.838 979.152 18.838C979.777 18.838 980.253 18.6653 980.58 18.32C980.916 17.9747 981.135 17.5173 981.238 16.948C981.35 16.3787 981.406 15.674 981.406 14.834Z" fill="#11263C"/>
<path fill-rule="evenodd" clip-rule="evenodd" d="M995.676 11.5C995.676 10.8556 996.198 10.3333 996.843 10.3333H1005.01C1005.65 10.3333 1006.18 10.8556 1006.18 11.5V19.6666C1006.18 20.311 1005.65 20.8333 1005.01 20.8333H996.843C996.198 20.8333 995.676 20.311 995.676 19.6666V11.5Z" stroke="#1D371C" stroke-width="1.16667" stroke-linecap="round" stroke-linejoin="round"/>
<path d="M1003.26 9.16669V11.5" stroke="#1D371C" stroke-width="1.16667" stroke-linecap="round" stroke-linejoin="round"/>
<path d="M998.593 9.16669V11.5" stroke="#1D371C" stroke-width="1.16667" stroke-linecap="round" stroke-linejoin="round"/>
<path d="M995.676 13.8333H1006.18" stroke="#1D371C" stroke-width="1.16667" stroke-linecap="round" stroke-linejoin="round"/>
<rect x="892.426" y="0.5" width="125" height="29" rx="3.5" stroke="#ECE9F1"/>
<rect x="1048.43" y="0.5" width="29" height="29" rx="3.5" fill="white"/>
<path fill-rule="evenodd" clip-rule="evenodd" d="M1062.93 16.1666C1063.57 16.1666 1064.09 15.6443 1064.09 15C1064.09 14.3556 1063.57 13.8333 1062.93 13.8333C1062.28 13.8333 1061.76 14.3556 1061.76 15C1061.76 15.6443 1062.28 16.1666 1062.93 16.1666Z" stroke="#1D371C" stroke-width="1.16667" stroke-linecap="round" stroke-linejoin="round"/>
<path fill-rule="evenodd" clip-rule="evenodd" d="M1067.59 16.1666C1068.24 16.1666 1068.76 15.6443 1068.76 15C1068.76 14.3556 1068.24 13.8333 1067.59 13.8333C1066.95 13.8333 1066.43 14.3556 1066.43 15C1066.43 15.6443 1066.95 16.1666 1067.59 16.1666Z" stroke="#1D371C" stroke-width="1.16667" stroke-linecap="round" stroke-linejoin="round"/>
<path fill-rule="evenodd" clip-rule="evenodd" d="M1058.26 16.1666C1058.9 16.1666 1059.43 15.6443 1059.43 15C1059.43 14.3556 1058.9 13.8333 1058.26 13.8333C1057.61 13.8333 1057.09 14.3556 1057.09 15C1057.09 15.6443 1057.61 16.1666 1058.26 16.1666Z" stroke="#1D371C" stroke-width="1.16667" stroke-linecap="round" stroke-linejoin="round"/>
<rect x="1048.43" y="0.5" width="29" height="29" rx="3.5" stroke="#ECE9F1"/>
<path d="M9.738 10.416V8.184H0.54V10.416H3.888V21H6.39V10.416H9.738ZM17.9439 16.302C17.9439 14.61 17.7279 13.548 16.8819 12.666C16.3059 12.054 15.3519 11.514 13.9659 11.514C12.5799 11.514 11.6439 12.054 11.0679 12.666C10.2219 13.548 10.0059 14.61 10.0059 16.302C10.0059 18.012 10.2219 19.074 11.0679 19.956C11.6439 20.568 12.5799 21.108 13.9659 21.108C15.3519 21.108 16.3059 20.568 16.8819 19.956C17.7279 19.074 17.9439 18.012 17.9439 16.302ZM15.6039 16.302C15.6039 17.274 15.5499 18.102 15.0639 18.588C14.7939 18.858 14.4339 19.002 13.9659 19.002C13.4979 19.002 13.1559 18.858 12.8859 18.588C12.3999 18.102 12.3459 17.274 12.3459 16.302C12.3459 15.33 12.3999 14.52 12.8859 14.034C13.1559 13.764 13.4979 13.62 13.9659 13.62C14.4339 13.62 14.7939 13.764 15.0639 14.034C15.5499 14.52 15.6039 15.33 15.6039 16.302ZM24.3873 21V19.02H23.5413C22.9833 19.02 22.7313 18.714 22.7313 18.174V13.674H24.3873V11.892H22.7313V9.12H20.3913V11.892H19.4013V13.674H20.3913V18.318C20.3913 19.65 21.2013 21 23.1093 21H24.3873ZM33.5427 21V14.826C33.5427 12.63 32.1747 11.514 29.5467 11.514C27.9807 11.514 27.0807 11.802 26.1627 12.81L27.6567 14.268C28.1427 13.71 28.5567 13.494 29.4567 13.494C30.6987 13.494 31.2027 13.944 31.2027 14.97V15.438H28.9887C26.8107 15.438 25.7847 16.662 25.7847 18.156C25.7847 18.984 26.0547 19.74 26.5587 20.262C27.1167 20.82 27.8907 21.09 28.9527 21.09C30.0327 21.09 30.6267 20.82 31.2567 20.19V21H33.5427ZM31.2027 17.544C31.2027 18.12 31.1127 18.498 30.8607 18.732C30.4467 19.128 30.0327 19.182 29.3847 19.182C28.4667 19.182 28.0347 18.75 28.0347 18.102C28.0347 17.436 28.5027 17.04 29.3487 17.04H31.2027V17.544ZM40.044 21V19.02H39.144C38.55 19.02 38.316 18.732 38.316 18.174V8.184H35.976V18.318C35.976 19.65 36.786 21 38.712 21H40.044ZM53.5911 11.622H51.1251L49.2351 17.418L47.3271 11.622H44.8611L48.3171 21H50.1531L53.5911 11.622ZM57.32 21V11.622H54.98V21H57.32ZM57.338 10.02V8.112H54.944V10.02H57.338ZM66.993 18.048C66.993 16.464 66.057 15.474 64.203 15.294L62.727 15.15C61.899 15.078 61.755 14.682 61.755 14.34C61.755 13.872 62.151 13.44 63.087 13.44C63.897 13.44 64.725 13.584 65.265 14.07L66.705 12.612C65.805 11.766 64.581 11.514 63.123 11.514C61.215 11.514 59.505 12.558 59.505 14.502C59.505 16.23 60.549 16.968 62.241 17.13L63.717 17.274C64.455 17.346 64.707 17.67 64.707 18.138C64.707 18.84 63.861 19.11 63.051 19.11C62.331 19.11 61.323 19.002 60.549 18.228L59.019 19.758C60.207 20.946 61.539 21.108 63.015 21.108C65.229 21.108 66.993 20.118 66.993 18.048ZM71.2946 21V11.622H68.9546V21H71.2946ZM71.3126 10.02V8.112H68.9186V10.02H71.3126ZM78.1237 21V19.02H77.2777C76.7197 19.02 76.4677 18.714 76.4677 18.174V13.674H78.1237V11.892H76.4677V9.12H74.1277V11.892H73.1377V13.674H74.1277V18.318C74.1277 19.65 74.9377 21 76.8457 21H78.1237ZM87.2958 18.048C87.2958 16.464 86.3598 15.474 84.5058 15.294L83.0298 15.15C82.2018 15.078 82.0578 14.682 82.0578 14.34C82.0578 13.872 82.4538 13.44 83.3898 13.44C84.1998 13.44 85.0278 13.584 85.5678 14.07L87.0078 12.612C86.1078 11.766 84.8838 11.514 83.4258 11.514C81.5178 11.514 79.8078 12.558 79.8078 14.502C79.8078 16.23 80.8518 16.968 82.5438 17.13L84.0198 17.274C84.7578 17.346 85.0098 17.67 85.0098 18.138C85.0098 18.84 84.1638 19.11 83.3538 19.11C82.6338 19.11 81.6258 19.002 80.8518 18.228L79.3218 19.758C80.5098 20.946 81.8418 21.108 83.3178 21.108C85.5318 21.108 87.2958 20.118 87.2958 18.048Z" fill="#11263C"/>
<path fill-rule="evenodd" clip-rule="evenodd" d="M107 21.5001C111.142 21.5001 114.5 18.1422 114.5 14.0001C114.5 9.85793 111.142 6.50006 107 6.50006C102.858 6.50006 99.4999 9.85793 99.4999 14.0001C99.4999 18.1422 102.858 21.5001 107 21.5001Z" stroke="#D0D1D2" stroke-width="1.5" stroke-linecap="round" stroke-linejoin="round"/>
<path d="M107 11.0001V14.0001" stroke="#D0D1D2" stroke-width="1.5" stroke-linecap="round" stroke-linejoin="round"/>
<circle cx="107" cy="17" r="0.75" fill="#D0D1D2"/>
<path d="M79.4075 203.543C141.101 196.564 136.988 238.024 218.217 244.073C299.447 250.122 322.068 207.78 359.084 195.682C396.1 183.585 412.551 128.458 474.245 132.18C535.938 135.902 566.785 173.199 618.196 177.852C669.607 182.505 679.889 213.363 728.216 236.163C776.542 258.962 820.756 261.754 881.421 257.101C942.086 252.448 958.537 205.404 987.328 203.543C1016.12 201.682 1041.82 224.115 1066.5 229.234C1091.18 234.352 1098.38 257.101 1150.81 257.101" stroke="#ECE9F1" stroke-width="4" stroke-linecap="round" stroke-linejoin="round"/>
<path d="M0.714 72.978C1.89933 72.026 2.828 71.2467 3.5 70.64C4.172 70.024 4.73667 69.3847 5.194 68.722C5.66067 68.05 5.894 67.392 5.894 66.748C5.894 66.1413 5.74467 65.6653 5.446 65.32C5.15667 64.9653 4.68533 64.788 4.032 64.788C3.39733 64.788 2.90267 64.9887 2.548 65.39C2.20267 65.782 2.016 66.3093 1.988 66.972H0.756C0.793333 65.9267 1.11067 65.1193 1.708 64.55C2.30533 63.9807 3.07533 63.696 4.018 63.696C4.97933 63.696 5.74 63.962 6.3 64.494C6.86933 65.026 7.154 65.7587 7.154 66.692C7.154 67.4667 6.92067 68.2227 6.454 68.96C5.99667 69.688 5.474 70.332 4.886 70.892C4.298 71.4427 3.54667 72.0867 2.632 72.824H7.448V73.888H0.714V72.978ZM14.5627 66.286C14.3574 65.25 13.7181 64.732 12.6447 64.732C11.8141 64.732 11.1934 65.054 10.7827 65.698C10.3721 66.3327 10.1714 67.3827 10.1807 68.848C10.3954 68.3627 10.7501 67.9847 11.2447 67.714C11.7487 67.434 12.3087 67.294 12.9247 67.294C13.8861 67.294 14.6514 67.5927 15.2207 68.19C15.7994 68.7873 16.0887 69.6133 16.0887 70.668C16.0887 71.3027 15.9627 71.872 15.7107 72.376C15.4681 72.88 15.0947 73.2813 14.5907 73.58C14.0961 73.8787 13.4941 74.028 12.7847 74.028C11.8234 74.028 11.0721 73.8133 10.5307 73.384C9.9894 72.9547 9.6114 72.362 9.39673 71.606C9.18207 70.85 9.07473 69.9167 9.07473 68.806C9.07473 65.3807 10.2694 63.668 12.6587 63.668C13.5734 63.668 14.2921 63.9153 14.8147 64.41C15.3374 64.9047 15.6454 65.53 15.7387 66.286H14.5627ZM12.6587 68.372C12.2574 68.372 11.8794 68.456 11.5247 68.624C11.1701 68.7827 10.8807 69.03 10.6567 69.366C10.4421 69.6927 10.3347 70.094 10.3347 70.57C10.3347 71.2793 10.5401 71.858 10.9507 72.306C11.3614 72.7447 11.9494 72.964 12.7147 72.964C13.3681 72.964 13.8861 72.7633 14.2687 72.362C14.6607 71.9513 14.8567 71.4007 14.8567 70.71C14.8567 69.982 14.6701 69.4127 14.2967 69.002C13.9234 68.582 13.3774 68.372 12.6587 68.372ZM17.8075 68.834C17.8075 67.2287 18.0688 65.978 18.5915 65.082C19.1141 64.1767 20.0288 63.724 21.3355 63.724C22.6328 63.724 23.5428 64.1767 24.0655 65.082C24.5881 65.978 24.8495 67.2287 24.8495 68.834C24.8495 70.4673 24.5881 71.7367 24.0655 72.642C23.5428 73.5473 22.6328 74 21.3355 74C20.0288 74 19.1141 73.5473 18.5915 72.642C18.0688 71.7367 17.8075 70.4673 17.8075 68.834ZM23.5895 68.834C23.5895 68.022 23.5335 67.336 23.4215 66.776C23.3188 66.2067 23.0995 65.7493 22.7635 65.404C22.4368 65.0587 21.9608 64.886 21.3355 64.886C20.7008 64.886 20.2155 65.0587 19.8795 65.404C19.5528 65.7493 19.3335 66.2067 19.2215 66.776C19.1188 67.336 19.0675 68.022 19.0675 68.834C19.0675 69.674 19.1188 70.3787 19.2215 70.948C19.3335 71.5173 19.5528 71.9747 19.8795 72.32C20.2155 72.6653 20.7008 72.838 21.3355 72.838C21.9608 72.838 22.4368 72.6653 22.7635 72.32C23.0995 71.9747 23.3188 71.5173 23.4215 70.948C23.5335 70.3787 23.5895 69.674 23.5895 68.834ZM36.7065 64.312V74H35.4325V66.776L32.2125 74H31.3165L28.0825 66.762V74H26.8085V64.312H28.1805L31.7645 72.32L35.3485 64.312H36.7065Z" fill="#A2A3A5"/>
<path d="M0.714 144.978C1.89933 144.026 2.828 143.247 3.5 142.64C4.172 142.024 4.73667 141.385 5.194 140.722C5.66067 140.05 5.894 139.392 5.894 138.748C5.894 138.141 5.74467 137.665 5.446 137.32C5.15667 136.965 4.68533 136.788 4.032 136.788C3.39733 136.788 2.90267 136.989 2.548 137.39C2.20267 137.782 2.016 138.309 1.988 138.972H0.756C0.793333 137.927 1.11067 137.119 1.708 136.55C2.30533 135.981 3.07533 135.696 4.018 135.696C4.97933 135.696 5.74 135.962 6.3 136.494C6.86933 137.026 7.154 137.759 7.154 138.692C7.154 139.467 6.92067 140.223 6.454 140.96C5.99667 141.688 5.474 142.332 4.886 142.892C4.298 143.443 3.54667 144.087 2.632 144.824H7.448V145.888H0.714V144.978ZM8.76673 144.978C9.95207 144.026 10.8807 143.247 11.5527 142.64C12.2247 142.024 12.7894 141.385 13.2467 140.722C13.7134 140.05 13.9467 139.392 13.9467 138.748C13.9467 138.141 13.7974 137.665 13.4987 137.32C13.2094 136.965 12.7381 136.788 12.0847 136.788C11.4501 136.788 10.9554 136.989 10.6007 137.39C10.2554 137.782 10.0687 138.309 10.0407 138.972H8.80873C8.84607 137.927 9.1634 137.119 9.76073 136.55C10.3581 135.981 11.1281 135.696 12.0707 135.696C13.0321 135.696 13.7927 135.962 14.3527 136.494C14.9221 137.026 15.2067 137.759 15.2067 138.692C15.2067 139.467 14.9734 140.223 14.5067 140.96C14.0494 141.688 13.5267 142.332 12.9387 142.892C12.3507 143.443 11.5994 144.087 10.6847 144.824H15.5007V145.888H8.76673V144.978ZM16.9735 140.834C16.9735 139.229 17.2348 137.978 17.7575 137.082C18.2801 136.177 19.1948 135.724 20.5015 135.724C21.7988 135.724 22.7088 136.177 23.2315 137.082C23.7541 137.978 24.0155 139.229 24.0155 140.834C24.0155 142.467 23.7541 143.737 23.2315 144.642C22.7088 145.547 21.7988 146 20.5015 146C19.1948 146 18.2801 145.547 17.7575 144.642C17.2348 143.737 16.9735 142.467 16.9735 140.834ZM22.7555 140.834C22.7555 140.022 22.6995 139.336 22.5875 138.776C22.4848 138.207 22.2655 137.749 21.9295 137.404C21.6028 137.059 21.1268 136.886 20.5015 136.886C19.8668 136.886 19.3815 137.059 19.0455 137.404C18.7188 137.749 18.4995 138.207 18.3875 138.776C18.2848 139.336 18.2335 140.022 18.2335 140.834C18.2335 141.674 18.2848 142.379 18.3875 142.948C18.4995 143.517 18.7188 143.975 19.0455 144.32C19.3815 144.665 19.8668 144.838 20.5015 144.838C21.1268 144.838 21.6028 144.665 21.9295 144.32C22.2655 143.975 22.4848 143.517 22.5875 142.948C22.6995 142.379 22.7555 141.674 22.7555 140.834ZM35.8725 136.312V146H34.5985V138.776L31.3785 146H30.4825L27.2485 138.762V146H25.9745V136.312H27.3465L30.9305 144.32L34.5145 136.312H35.8725Z" fill="#A2A3A5"/>
<path d="M0.532 209.04V207.878H3.164V218H1.876V209.04H0.532ZM7.20038 212.736C6.67771 212.531 6.27638 212.232 5.99638 211.84C5.71638 211.448 5.57638 210.972 5.57638 210.412C5.57638 209.908 5.70238 209.455 5.95438 209.054C6.20638 208.643 6.57971 208.321 7.07438 208.088C7.57838 207.845 8.18504 207.724 8.89438 207.724C9.60371 207.724 10.2057 207.845 10.7004 208.088C11.2044 208.321 11.5824 208.643 11.8344 209.054C12.0957 209.455 12.2264 209.908 12.2264 210.412C12.2264 210.953 12.0817 211.429 11.7924 211.84C11.503 212.241 11.1064 212.54 10.6024 212.736C11.181 212.913 11.6384 213.226 11.9744 213.674C12.3197 214.113 12.4924 214.645 12.4924 215.27C12.4924 215.877 12.343 216.409 12.0444 216.866C11.7457 217.314 11.321 217.664 10.7704 217.916C10.229 218.159 9.60371 218.28 8.89438 218.28C8.18504 218.28 7.55971 218.159 7.01838 217.916C6.48638 217.664 6.07104 217.314 5.77238 216.866C5.47371 216.409 5.32438 215.877 5.32438 215.27C5.32438 214.645 5.49238 214.108 5.82838 213.66C6.16437 213.212 6.62171 212.904 7.20038 212.736ZM10.9944 210.566C10.9944 209.997 10.8077 209.558 10.4344 209.25C10.061 208.942 9.54771 208.788 8.89438 208.788C8.25038 208.788 7.74171 208.942 7.36838 209.25C6.99504 209.558 6.80838 210.001 6.80838 210.58C6.80838 211.103 6.99971 211.523 7.38238 211.84C7.77438 212.157 8.27838 212.316 8.89438 212.316C9.51971 212.316 10.0237 212.157 10.4064 211.84C10.7984 211.513 10.9944 211.089 10.9944 210.566ZM8.89438 213.296C8.20371 213.296 7.63904 213.459 7.20038 213.786C6.76171 214.103 6.54237 214.584 6.54237 215.228C6.54237 215.825 6.75238 216.306 7.17238 216.67C7.60171 217.034 8.17571 217.216 8.89438 217.216C9.61304 217.216 10.1824 217.034 10.6024 216.67C11.0224 216.306 11.2324 215.825 11.2324 215.228C11.2324 214.603 11.0177 214.127 10.5884 213.8C10.159 213.464 9.59438 213.296 8.89438 213.296ZM14.1844 212.834C14.1844 211.229 14.4457 209.978 14.9684 209.082C15.4911 208.177 16.4057 207.724 17.7124 207.724C19.0097 207.724 19.9197 208.177 20.4424 209.082C20.9651 209.978 21.2264 211.229 21.2264 212.834C21.2264 214.467 20.9651 215.737 20.4424 216.642C19.9197 217.547 19.0097 218 17.7124 218C16.4057 218 15.4911 217.547 14.9684 216.642C14.4457 215.737 14.1844 214.467 14.1844 212.834ZM19.9664 212.834C19.9664 212.022 19.9104 211.336 19.7984 210.776C19.6957 210.207 19.4764 209.749 19.1404 209.404C18.8137 209.059 18.3377 208.886 17.7124 208.886C17.0777 208.886 16.5924 209.059 16.2564 209.404C15.9297 209.749 15.7104 210.207 15.5984 210.776C15.4957 211.336 15.4444 212.022 15.4444 212.834C15.4444 213.674 15.4957 214.379 15.5984 214.948C15.7104 215.517 15.9297 215.975 16.2564 216.32C16.5924 216.665 17.0777 216.838 17.7124 216.838C18.3377 216.838 18.8137 216.665 19.1404 216.32C19.4764 215.975 19.6957 215.517 19.7984 214.948C19.9104 214.379 19.9664 213.674 19.9664 212.834ZM33.0834 208.312V218H31.8094V210.776L28.5894 218H27.6934L24.4594 210.762V218H23.1854V208.312H24.5574L28.1414 216.32L31.7254 208.312H33.0834Z" fill="#A2A3A5"/>
<path d="M0.532 281.04V279.878H3.164V290H1.876V281.04H0.532ZM5.04438 287.746V286.78L9.95838 279.976H11.4844V286.64H12.8844V287.746H11.4844V290H10.2244V287.746H5.04438ZM10.2804 281.306L6.51438 286.64H10.2804V281.306ZM14.1571 284.834C14.1571 283.229 14.4184 281.978 14.9411 281.082C15.4637 280.177 16.3784 279.724 17.6851 279.724C18.9824 279.724 19.8924 280.177 20.4151 281.082C20.9377 281.978 21.1991 283.229 21.1991 284.834C21.1991 286.467 20.9377 287.737 20.4151 288.642C19.8924 289.547 18.9824 290 17.6851 290C16.3784 290 15.4637 289.547 14.9411 288.642C14.4184 287.737 14.1571 286.467 14.1571 284.834ZM19.9391 284.834C19.9391 284.022 19.8831 283.336 19.7711 282.776C19.6684 282.207 19.4491 281.749 19.1131 281.404C18.7864 281.059 18.3104 280.886 17.6851 280.886C17.0504 280.886 16.5651 281.059 16.2291 281.404C15.9024 281.749 15.6831 282.207 15.5711 282.776C15.4684 283.336 15.4171 284.022 15.4171 284.834C15.4171 285.674 15.4684 286.379 15.5711 286.948C15.6831 287.517 15.9024 287.975 16.2291 288.32C16.5651 288.665 17.0504 288.838 17.6851 288.838C18.3104 288.838 18.7864 288.665 19.1131 288.32C19.4491 287.975 19.6684 287.517 19.7711 286.948C19.8831 286.379 19.9391 285.674 19.9391 284.834ZM33.0561 280.312V290H31.7821V282.776L28.5621 290H27.6661L24.4321 282.762V290H23.1581V280.312H24.5301L28.1141 288.32L31.6981 280.312H33.0561Z" fill="#A2A3A5"/>
<line x1="78.2222" y1="68.5" x2="1152" y2="68.5" stroke="#ECE9F1"/>
<line x1="78.2222" y1="140.5" x2="1152" y2="140.5" stroke="#ECE9F1"/>
<line x1="78.2222" y1="212.5" x2="1152" y2="212.5" stroke="#ECE9F1"/>
<line x1="78.2222" y1="284.5" x2="1152" y2="284.5" stroke="#ECE9F1"/>
<path d="M78.2222 268.794C125.399 262.629 164.193 225.034 220.484 218.715C250.486 215.347 274.521 221.902 301.338 232.088C328.154 242.273 322.905 246.671 383.215 254.524C432.985 261.004 446.004 191.14 494.773 193.825C543.542 196.509 566.099 112.512 617.589 119.524C669.079 126.535 679.367 108.407 727.767 142.764C776.168 177.122 820.885 97.0367 881.643 90.0249C942.401 83.0132 958.226 157.435 987.06 154.63C1015.89 151.825 1041.86 204.855 1066.57 212.568C1091.29 220.281 1098.3 192.263 1150.81 192.263" stroke="#1D371C" stroke-width="4" stroke-linecap="round" stroke-linejoin="round"/>
<path d="M220.484 218.715C164.193 225.034 125.399 262.629 78.2222 268.794V284H1150.81V192.263C1098.29 192.263 1091.29 220.281 1066.57 212.568C1041.86 204.855 1015.89 151.825 987.06 154.63C958.226 157.435 942.401 83.0132 881.643 90.0249C820.885 97.0367 776.168 177.122 727.767 142.764C679.367 108.407 669.079 126.535 617.589 119.524C566.099 112.512 543.542 196.509 494.773 193.825C446.003 191.14 432.985 261.004 383.215 254.524C322.905 246.671 328.154 242.273 301.338 232.088C274.521 221.902 250.486 215.347 220.484 218.715Z" fill="url(#paint0_linear_1_126)"/>
<path d="M78.7542 312.04V310.878H81.3862V321H80.0982V312.04H78.7542Z" fill="#A2A3A5"/>
<path d="M259.519 311.984H254.605V315.176C254.82 314.877 255.137 314.635 255.557 314.448C255.977 314.252 256.43 314.154 256.915 314.154C257.69 314.154 258.32 314.317 258.805 314.644C259.29 314.961 259.636 315.377 259.841 315.89C260.056 316.394 260.163 316.931 260.163 317.5C260.163 318.172 260.037 318.774 259.785 319.306C259.533 319.838 259.146 320.258 258.623 320.566C258.11 320.874 257.47 321.028 256.705 321.028C255.725 321.028 254.932 320.776 254.325 320.272C253.718 319.768 253.35 319.096 253.219 318.256H254.465C254.586 318.788 254.843 319.203 255.235 319.502C255.627 319.801 256.122 319.95 256.719 319.95C257.456 319.95 258.012 319.731 258.385 319.292C258.758 318.844 258.945 318.256 258.945 317.528C258.945 316.8 258.758 316.24 258.385 315.848C258.012 315.447 257.461 315.246 256.733 315.246C256.238 315.246 255.804 315.367 255.431 315.61C255.067 315.843 254.801 316.165 254.633 316.576H253.429V310.864H259.519V311.984Z" fill="#A2A3A5"/>
<path d="M427.672 312.04V310.878H430.304V321H429.016V312.04H427.672ZM432.492 315.834C432.492 314.229 432.754 312.978 433.276 312.082C433.799 311.177 434.714 310.724 436.02 310.724C437.318 310.724 438.228 311.177 438.75 312.082C439.273 312.978 439.534 314.229 439.534 315.834C439.534 317.467 439.273 318.737 438.75 319.642C438.228 320.547 437.318 321 436.02 321C434.714 321 433.799 320.547 433.276 319.642C432.754 318.737 432.492 317.467 432.492 315.834ZM438.274 315.834C438.274 315.022 438.218 314.336 438.106 313.776C438.004 313.207 437.784 312.749 437.448 312.404C437.122 312.059 436.646 311.886 436.02 311.886C435.386 311.886 434.9 312.059 434.564 312.404C434.238 312.749 434.018 313.207 433.906 313.776C433.804 314.336 433.752 315.022 433.752 315.834C433.752 316.674 433.804 317.379 433.906 317.948C434.018 318.517 434.238 318.975 434.564 319.32C434.9 319.665 435.386 319.838 436.02 319.838C436.646 319.838 437.122 319.665 437.448 319.32C437.784 318.975 438.004 318.517 438.106 317.948C438.218 317.379 438.274 316.674 438.274 315.834Z" fill="#A2A3A5"/>
<path d="M605.45 312.04V310.878H608.082V321H606.794V312.04H605.45ZM616.724 311.984H611.81V315.176C612.025 314.877 612.342 314.635 612.762 314.448C613.182 314.252 613.635 314.154 614.12 314.154C614.895 314.154 615.525 314.317 616.01 314.644C616.496 314.961 616.841 315.377 617.046 315.89C617.261 316.394 617.368 316.931 617.368 317.5C617.368 318.172 617.242 318.774 616.99 319.306C616.738 319.838 616.351 320.258 615.828 320.566C615.315 320.874 614.676 321.028 613.91 321.028C612.93 321.028 612.137 320.776 611.53 320.272C610.924 319.768 610.555 319.096 610.424 318.256H611.67C611.792 318.788 612.048 319.203 612.44 319.502C612.832 319.801 613.327 319.95 613.924 319.95C614.662 319.95 615.217 319.731 615.59 319.292C615.964 318.844 616.15 318.256 616.15 317.528C616.15 316.8 615.964 316.24 615.59 315.848C615.217 315.447 614.666 315.246 613.938 315.246C613.444 315.246 613.01 315.367 612.636 315.61C612.272 315.843 612.006 316.165 611.838 316.576H610.634V310.864H616.724V311.984Z" fill="#A2A3A5"/>
<path d="M782.218 319.978C783.403 319.026 784.332 318.247 785.004 317.64C785.676 317.024 786.241 316.385 786.698 315.722C787.165 315.05 787.398 314.392 787.398 313.748C787.398 313.141 787.249 312.665 786.95 312.32C786.661 311.965 786.189 311.788 785.536 311.788C784.901 311.788 784.407 311.989 784.052 312.39C783.707 312.782 783.52 313.309 783.492 313.972H782.26C782.297 312.927 782.615 312.119 783.212 311.55C783.809 310.981 784.579 310.696 785.522 310.696C786.483 310.696 787.244 310.962 787.804 311.494C788.373 312.026 788.658 312.759 788.658 313.692C788.658 314.467 788.425 315.223 787.958 315.96C787.501 316.688 786.978 317.332 786.39 317.892C785.802 318.443 785.051 319.087 784.136 319.824H788.952V320.888H782.218V319.978ZM790.425 315.834C790.425 314.229 790.686 312.978 791.209 312.082C791.731 311.177 792.646 310.724 793.953 310.724C795.25 310.724 796.16 311.177 796.683 312.082C797.205 312.978 797.467 314.229 797.467 315.834C797.467 317.467 797.205 318.737 796.683 319.642C796.16 320.547 795.25 321 793.953 321C792.646 321 791.731 320.547 791.209 319.642C790.686 318.737 790.425 317.467 790.425 315.834ZM796.207 315.834C796.207 315.022 796.151 314.336 796.039 313.776C795.936 313.207 795.717 312.749 795.381 312.404C795.054 312.059 794.578 311.886 793.953 311.886C793.318 311.886 792.833 312.059 792.497 312.404C792.17 312.749 791.951 313.207 791.839 313.776C791.736 314.336 791.685 315.022 791.685 315.834C791.685 316.674 791.736 317.379 791.839 317.948C791.951 318.517 792.17 318.975 792.497 319.32C792.833 319.665 793.318 319.838 793.953 319.838C794.578 319.838 795.054 319.665 795.381 319.32C795.717 318.975 795.936 318.517 796.039 317.948C796.151 317.379 796.207 316.674 796.207 315.834Z" fill="#A2A3A5"/>
<path d="M959.996 319.978C961.181 319.026 962.11 318.247 962.782 317.64C963.454 317.024 964.019 316.385 964.476 315.722C964.943 315.05 965.176 314.392 965.176 313.748C965.176 313.141 965.027 312.665 964.728 312.32C964.439 311.965 963.967 311.788 963.314 311.788C962.679 311.788 962.185 311.989 961.83 312.39C961.485 312.782 961.298 313.309 961.27 313.972H960.038C960.075 312.927 960.393 312.119 960.99 311.55C961.587 310.981 962.357 310.696 963.3 310.696C964.261 310.696 965.022 310.962 965.582 311.494C966.151 312.026 966.436 312.759 966.436 313.692C966.436 314.467 966.203 315.223 965.736 315.96C965.279 316.688 964.756 317.332 964.168 317.892C963.58 318.443 962.829 319.087 961.914 319.824H966.73V320.888H959.996V319.978ZM974.657 311.984H969.743V315.176C969.957 314.877 970.275 314.635 970.695 314.448C971.115 314.252 971.567 314.154 972.053 314.154C972.827 314.154 973.457 314.317 973.943 314.644C974.428 314.961 974.773 315.377 974.979 315.89C975.193 316.394 975.301 316.931 975.301 317.5C975.301 318.172 975.175 318.774 974.923 319.306C974.671 319.838 974.283 320.258 973.761 320.566C973.247 320.874 972.608 321.028 971.843 321.028C970.863 321.028 970.069 320.776 969.463 320.272C968.856 319.768 968.487 319.096 968.357 318.256H969.603C969.724 318.788 969.981 319.203 970.373 319.502C970.765 319.801 971.259 319.95 971.857 319.95C972.594 319.95 973.149 319.731 973.523 319.292C973.896 318.844 974.083 318.256 974.083 317.528C974.083 316.8 973.896 316.24 973.523 315.848C973.149 315.447 972.599 315.246 971.871 315.246C971.376 315.246 970.942 315.367 970.569 315.61C970.205 315.843 969.939 316.165 969.771 316.576H968.567V310.864H974.657V311.984Z" fill="#A2A3A5"/>
<path d="M1134.62 313.426C1134.68 312.567 1135.02 311.895 1135.61 311.41C1136.21 310.925 1136.99 310.682 1137.94 310.682C1138.57 310.682 1139.12 310.799 1139.58 311.032C1140.04 311.256 1140.39 311.564 1140.63 311.956C1140.87 312.348 1140.99 312.791 1140.99 313.286C1140.99 313.865 1140.82 314.364 1140.49 314.784C1140.16 315.204 1139.73 315.475 1139.2 315.596V315.666C1139.8 315.815 1140.28 316.109 1140.64 316.548C1140.99 316.987 1141.17 317.561 1141.17 318.27C1141.17 318.802 1141.05 319.283 1140.81 319.712C1140.56 320.132 1140.2 320.463 1139.72 320.706C1139.23 320.949 1138.65 321.07 1137.97 321.07C1136.98 321.07 1136.16 320.813 1135.53 320.3C1134.89 319.777 1134.54 319.04 1134.47 318.088H1135.7C1135.76 318.648 1135.99 319.105 1136.38 319.46C1136.78 319.815 1137.3 319.992 1137.95 319.992C1138.6 319.992 1139.1 319.824 1139.44 319.488C1139.78 319.143 1139.95 318.699 1139.95 318.158C1139.95 317.458 1139.72 316.954 1139.25 316.646C1138.79 316.338 1138.08 316.184 1137.14 316.184H1136.82V315.12H1137.15C1138.01 315.111 1138.66 314.971 1139.1 314.7C1139.54 314.42 1139.76 313.991 1139.76 313.412C1139.76 312.917 1139.59 312.521 1139.27 312.222C1138.95 311.923 1138.49 311.774 1137.9 311.774C1137.32 311.774 1136.85 311.923 1136.5 312.222C1136.14 312.521 1135.93 312.922 1135.87 313.426H1134.62ZM1142.89 315.834C1142.89 314.229 1143.15 312.978 1143.68 312.082C1144.2 311.177 1145.11 310.724 1146.42 310.724C1147.72 310.724 1148.63 311.177 1149.15 312.082C1149.67 312.978 1149.93 314.229 1149.93 315.834C1149.93 317.467 1149.67 318.737 1149.15 319.642C1148.63 320.547 1147.72 321 1146.42 321C1145.11 321 1144.2 320.547 1143.68 319.642C1143.15 318.737 1142.89 317.467 1142.89 315.834ZM1148.67 315.834C1148.67 315.022 1148.62 314.336 1148.51 313.776C1148.4 313.207 1148.18 312.749 1147.85 312.404C1147.52 312.059 1147.05 311.886 1146.42 311.886C1145.79 311.886 1145.3 312.059 1144.96 312.404C1144.64 312.749 1144.42 313.207 1144.31 313.776C1144.2 314.336 1144.15 315.022 1144.15 315.834C1144.15 316.674 1144.2 317.379 1144.31 317.948C1144.42 318.517 1144.64 318.975 1144.96 319.32C1145.3 319.665 1145.79 319.838 1146.42 319.838C1147.05 319.838 1147.52 319.665 1147.85 319.32C1148.18 318.975 1148.4 318.517 1148.51 317.948C1148.62 317.379 1148.67 316.674 1148.67 315.834Z" fill="#A2A3A5"/>
<line x1="540.944" y1="168" x2="540.944" y2="284" stroke="#1D371C" stroke-dasharray="4.4 4.4"/>
<g filter="url(#filter0_dd_1_126)">
<path fill-rule="evenodd" clip-rule="evenodd" d="M544.547 146.149C542.281 148.617 538.608 148.617 536.342 146.149L530.834 140.444C529.964 139.542 529.529 139.092 529.017 138.769C528.563 138.483 528.066 138.272 527.545 138.144C526.957 138 526.331 138 525.078 138H466.049C458.125 138 455.251 137.304 452.354 135.997C449.457 134.689 447.183 132.771 445.634 130.326C444.084 127.882 443.259 125.457 443.259 118.771V69.2291C443.259 62.5427 444.084 60.1181 445.634 57.6737C447.183 55.2292 449.457 53.3108 452.354 52.0035C455.251 50.6962 458.125 50 466.049 50H616.025C623.949 50 626.823 50.6962 629.72 52.0035C632.617 53.3108 634.891 55.2292 636.44 57.6737C637.99 60.1181 638.815 62.5427 638.815 69.2291V118.771C638.815 125.457 637.99 127.882 636.44 130.326C634.891 132.771 632.617 134.689 629.72 135.997C626.823 137.304 623.949 138 616.025 138H559.207C556.702 138 555.449 138 554.274 138.289C553.232 138.545 552.238 138.967 551.33 139.539C550.306 140.184 549.436 141.085 547.696 142.887L544.547 146.149Z" fill="white"/>
</g>
<g clip-path="url(#clip0_1_126)">
<path d="M463.958 67.424V68.016H462.438V73H461.71V68.016H460.182V67.424H463.958ZM467.031 68.536C467.361 68.536 467.66 68.608 467.927 68.752C468.193 68.8907 468.401 69.1013 468.551 69.384C468.705 69.6667 468.783 70.0107 468.783 70.416V73H468.063V70.52C468.063 70.0827 467.953 69.7493 467.735 69.52C467.516 69.2853 467.217 69.168 466.839 69.168C466.455 69.168 466.148 69.288 465.919 69.528C465.695 69.768 465.583 70.1173 465.583 70.576V73H464.855V67.08H465.583V69.24C465.727 69.016 465.924 68.8427 466.175 68.72C466.431 68.5973 466.716 68.536 467.031 68.536ZM470.348 67.904C470.209 67.904 470.092 67.856 469.996 67.76C469.9 67.664 469.852 67.5467 469.852 67.408C469.852 67.2693 469.9 67.152 469.996 67.056C470.092 66.96 470.209 66.912 470.348 66.912C470.481 66.912 470.593 66.96 470.684 67.056C470.78 67.152 470.828 67.2693 470.828 67.408C470.828 67.5467 470.78 67.664 470.684 67.76C470.593 67.856 470.481 67.904 470.348 67.904ZM470.7 68.616V73H469.972V68.616H470.7ZM473.493 73.072C473.157 73.072 472.855 73.016 472.589 72.904C472.322 72.7867 472.111 72.6267 471.957 72.424C471.802 72.216 471.717 71.9787 471.701 71.712H472.453C472.474 71.9307 472.575 72.1093 472.757 72.248C472.943 72.3867 473.186 72.456 473.485 72.456C473.762 72.456 473.981 72.3947 474.141 72.272C474.301 72.1493 474.381 71.9947 474.381 71.808C474.381 71.616 474.295 71.4747 474.125 71.384C473.954 71.288 473.69 71.1947 473.333 71.104C473.007 71.0187 472.741 70.9333 472.533 70.848C472.33 70.7573 472.154 70.6267 472.005 70.456C471.861 70.28 471.789 70.0507 471.789 69.768C471.789 69.544 471.855 69.3387 471.989 69.152C472.122 68.9653 472.311 68.8187 472.557 68.712C472.802 68.6 473.082 68.544 473.397 68.544C473.882 68.544 474.274 68.6667 474.573 68.912C474.871 69.1573 475.031 69.4933 475.053 69.92H474.325C474.309 69.6907 474.215 69.5067 474.045 69.368C473.879 69.2293 473.655 69.16 473.373 69.16C473.111 69.16 472.903 69.216 472.749 69.328C472.594 69.44 472.517 69.5867 472.517 69.768C472.517 69.912 472.562 70.032 472.653 70.128C472.749 70.2187 472.866 70.2933 473.005 70.352C473.149 70.4053 473.346 70.4667 473.597 70.536C473.911 70.6213 474.167 70.7067 474.365 70.792C474.562 70.872 474.73 70.9947 474.869 71.16C475.013 71.3253 475.087 71.5413 475.093 71.808C475.093 72.048 475.026 72.264 474.893 72.456C474.759 72.648 474.57 72.8 474.325 72.912C474.085 73.0187 473.807 73.072 473.493 73.072ZM483.909 67.464V73H483.181V68.872L481.341 73H480.829L478.981 68.864V73H478.253V67.464H479.037L481.085 72.04L483.133 67.464H483.909ZM487.056 73.072C486.645 73.072 486.272 72.9787 485.936 72.792C485.605 72.6053 485.344 72.3413 485.152 72C484.965 71.6533 484.872 71.2533 484.872 70.8C484.872 70.352 484.968 69.9573 485.16 69.616C485.357 69.2693 485.624 69.0053 485.96 68.824C486.296 68.6373 486.672 68.544 487.088 68.544C487.504 68.544 487.88 68.6373 488.216 68.824C488.552 69.0053 488.816 69.2667 489.008 69.608C489.205 69.9493 489.304 70.3467 489.304 70.8C489.304 71.2533 489.202 71.6533 489 72C488.802 72.3413 488.533 72.6053 488.192 72.792C487.85 72.9787 487.472 73.072 487.056 73.072ZM487.056 72.432C487.317 72.432 487.562 72.3707 487.792 72.248C488.021 72.1253 488.205 71.9413 488.344 71.696C488.488 71.4507 488.56 71.152 488.56 70.8C488.56 70.448 488.49 70.1493 488.352 69.904C488.213 69.6587 488.032 69.4773 487.808 69.36C487.584 69.2373 487.341 69.176 487.08 69.176C486.813 69.176 486.568 69.2373 486.344 69.36C486.125 69.4773 485.949 69.6587 485.816 69.904C485.682 70.1493 485.616 70.448 485.616 70.8C485.616 71.1573 485.68 71.4587 485.808 71.704C485.941 71.9493 486.117 72.1333 486.336 72.256C486.554 72.3733 486.794 72.432 487.056 72.432ZM492.397 68.536C492.93 68.536 493.362 68.6987 493.693 69.024C494.024 69.344 494.189 69.808 494.189 70.416V73H493.469V70.52C493.469 70.0827 493.36 69.7493 493.141 69.52C492.922 69.2853 492.624 69.168 492.245 69.168C491.861 69.168 491.554 69.288 491.325 69.528C491.101 69.768 490.989 70.1173 490.989 70.576V73H490.261V68.616H490.989V69.24C491.133 69.016 491.328 68.8427 491.573 68.72C491.824 68.5973 492.098 68.536 492.397 68.536ZM496.266 69.216V71.8C496.266 72.0133 496.311 72.1653 496.402 72.256C496.493 72.3413 496.65 72.384 496.874 72.384H497.41V73H496.754C496.349 73 496.045 72.9067 495.842 72.72C495.639 72.5333 495.538 72.2267 495.538 71.8V69.216H494.97V68.616H495.538V67.512H496.266V68.616H497.41V69.216H496.266ZM500.468 68.536C500.799 68.536 501.097 68.608 501.364 68.752C501.631 68.8907 501.839 69.1013 501.988 69.384C502.143 69.6667 502.22 70.0107 502.22 70.416V73H501.5V70.52C501.5 70.0827 501.391 69.7493 501.172 69.52C500.953 69.2853 500.655 69.168 500.276 69.168C499.892 69.168 499.585 69.288 499.356 69.528C499.132 69.768 499.02 70.1173 499.02 70.576V73H498.292V67.08H499.02V69.24C499.164 69.016 499.361 68.8427 499.612 68.72C499.868 68.5973 500.153 68.536 500.468 68.536Z" fill="#3C3C43" fill-opacity="0.6"/>
<path d="M461.181 94.986C461.679 94.59 461.907 94.4067 461.863 94.436C463.3 93.248 464.429 92.2727 465.251 91.51C466.087 90.7473 466.791 89.948 467.363 89.112C467.935 88.276 468.221 87.462 468.221 86.67C468.221 86.0687 468.081 85.5993 467.803 85.262C467.524 84.9247 467.106 84.756 466.549 84.756C465.991 84.756 465.551 84.9687 465.229 85.394C464.921 85.8047 464.767 86.3913 464.767 87.154H461.137C461.166 85.9073 461.43 84.866 461.929 84.03C462.442 83.194 463.109 82.578 463.931 82.182C464.767 81.786 465.691 81.588 466.703 81.588C468.448 81.588 469.761 82.0353 470.641 82.93C471.535 83.8247 471.983 84.9907 471.983 86.428C471.983 87.9973 471.447 89.4567 470.377 90.806C469.306 92.1407 467.942 93.446 466.285 94.722H472.225V97.78H461.181V94.986ZM473.749 94.986C474.248 94.59 474.475 94.4067 474.431 94.436C475.868 93.248 476.998 92.2727 477.819 91.51C478.655 90.7473 479.359 89.948 479.931 89.112C480.503 88.276 480.789 87.462 480.789 86.67C480.789 86.0687 480.65 85.5993 480.371 85.262C480.092 84.9247 479.674 84.756 479.117 84.756C478.56 84.756 478.12 84.9687 477.797 85.394C477.489 85.8047 477.335 86.3913 477.335 87.154H473.705C473.734 85.9073 473.998 84.866 474.497 84.03C475.01 83.194 475.678 82.578 476.499 82.182C477.335 81.786 478.259 81.588 479.271 81.588C481.016 81.588 482.329 82.0353 483.209 82.93C484.104 83.8247 484.551 84.9907 484.551 86.428C484.551 87.9973 484.016 89.4567 482.945 90.806C481.874 92.1407 480.51 93.446 478.853 94.722H484.793V97.78H473.749V94.986ZM486.449 89.75C486.449 87.2273 486.933 85.24 487.901 83.788C488.884 82.336 490.461 81.61 492.631 81.61C494.802 81.61 496.371 82.336 497.339 83.788C498.322 85.24 498.813 87.2273 498.813 89.75C498.813 92.302 498.322 94.304 497.339 95.756C496.371 97.208 494.802 97.934 492.631 97.934C490.461 97.934 488.884 97.208 487.901 95.756C486.933 94.304 486.449 92.302 486.449 89.75ZM495.117 89.75C495.117 88.2687 494.956 87.132 494.633 86.34C494.311 85.5333 493.643 85.13 492.631 85.13C491.619 85.13 490.952 85.5333 490.629 86.34C490.307 87.132 490.145 88.2687 490.145 89.75C490.145 90.7473 490.204 91.576 490.321 92.236C490.439 92.8813 490.673 93.4093 491.025 93.82C491.392 94.216 491.927 94.414 492.631 94.414C493.335 94.414 493.863 94.216 494.215 93.82C494.582 93.4093 494.824 92.8813 494.941 92.236C495.059 91.576 495.117 90.7473 495.117 89.75ZM505.223 94.524L502.781 100.838H500.383L501.659 94.524H505.223ZM507.249 86.472C507.308 84.9027 507.821 83.6927 508.789 82.842C509.757 81.9913 511.07 81.566 512.727 81.566C513.827 81.566 514.766 81.7567 515.543 82.138C516.335 82.5193 516.929 83.04 517.325 83.7C517.736 84.36 517.941 85.1007 517.941 85.922C517.941 86.89 517.699 87.682 517.215 88.298C516.731 88.8993 516.167 89.31 515.521 89.53V89.618C516.357 89.8967 517.017 90.3587 517.501 91.004C517.985 91.6493 518.227 92.478 518.227 93.49C518.227 94.3993 518.015 95.206 517.589 95.91C517.179 96.5993 516.57 97.142 515.763 97.538C514.971 97.934 514.025 98.132 512.925 98.132C511.165 98.132 509.757 97.6993 508.701 96.834C507.66 95.9687 507.11 94.6633 507.051 92.918H510.703C510.718 93.5633 510.901 94.0767 511.253 94.458C511.605 94.8247 512.119 95.008 512.793 95.008C513.365 95.008 513.805 94.8467 514.113 94.524C514.436 94.1867 514.597 93.7467 514.597 93.204C514.597 92.5 514.37 91.994 513.915 91.686C513.475 91.3633 512.764 91.202 511.781 91.202H511.077V88.144H511.781C512.529 88.144 513.131 88.0193 513.585 87.77C514.055 87.506 514.289 87.044 514.289 86.384C514.289 85.856 514.143 85.4453 513.849 85.152C513.556 84.8587 513.153 84.712 512.639 84.712C512.082 84.712 511.664 84.8807 511.385 85.218C511.121 85.5553 510.967 85.9733 510.923 86.472H507.249ZM520.526 95.14V92.104L527.478 82.16H531.68V91.884H533.484V95.14H531.68V98H527.918V95.14H520.526ZM528.182 86.296L524.486 91.884H528.182V86.296ZM535.194 94.986C535.693 94.59 535.92 94.4067 535.876 94.436C537.314 93.248 538.443 92.2727 539.264 91.51C540.1 90.7473 540.804 89.948 541.376 89.112C541.948 88.276 542.234 87.462 542.234 86.67C542.234 86.0687 542.095 85.5993 541.816 85.262C541.538 84.9247 541.12 84.756 540.562 84.756C540.005 84.756 539.565 84.9687 539.242 85.394C538.934 85.8047 538.78 86.3913 538.78 87.154H535.15C535.18 85.9073 535.444 84.866 535.942 84.03C536.456 83.194 537.123 82.578 537.944 82.182C538.78 81.786 539.704 81.588 540.716 81.588C542.462 81.588 543.774 82.0353 544.654 82.93C545.549 83.8247 545.996 84.9907 545.996 86.428C545.996 87.9973 545.461 89.4567 544.39 90.806C543.32 92.1407 541.956 93.446 540.298 94.722H546.238V97.78H535.194V94.986ZM552.317 94.524L549.875 100.838H547.477L548.753 94.524H552.317ZM553.815 85.438V81.94H559.909V98H555.993V85.438H553.815ZM562.35 94.986C562.849 94.59 563.076 94.4067 563.032 94.436C564.47 93.248 565.599 92.2727 566.42 91.51C567.256 90.7473 567.96 89.948 568.532 89.112C569.104 88.276 569.39 87.462 569.39 86.67C569.39 86.0687 569.251 85.5993 568.972 85.262C568.694 84.9247 568.276 84.756 567.718 84.756C567.161 84.756 566.721 84.9687 566.398 85.394C566.09 85.8047 565.936 86.3913 565.936 87.154H562.306C562.336 85.9073 562.6 84.866 563.098 84.03C563.612 83.194 564.279 82.578 565.1 82.182C565.936 81.786 566.86 81.588 567.872 81.588C569.618 81.588 570.93 82.0353 571.81 82.93C572.705 83.8247 573.152 84.9907 573.152 86.428C573.152 87.9973 572.617 89.4567 571.546 90.806C570.476 92.1407 569.112 93.446 567.454 94.722H573.394V97.78H562.35V94.986ZM575.183 86.472C575.242 84.9027 575.755 83.6927 576.723 82.842C577.691 81.9913 579.004 81.566 580.661 81.566C581.761 81.566 582.7 81.7567 583.477 82.138C584.269 82.5193 584.863 83.04 585.259 83.7C585.67 84.36 585.875 85.1007 585.875 85.922C585.875 86.89 585.633 87.682 585.149 88.298C584.665 88.8993 584.1 89.31 583.455 89.53V89.618C584.291 89.8967 584.951 90.3587 585.435 91.004C585.919 91.6493 586.161 92.478 586.161 93.49C586.161 94.3993 585.948 95.206 585.523 95.91C585.112 96.5993 584.504 97.142 583.697 97.538C582.905 97.934 581.959 98.132 580.859 98.132C579.099 98.132 577.691 97.6993 576.635 96.834C575.594 95.9687 575.044 94.6633 574.985 92.918H578.637C578.652 93.5633 578.835 94.0767 579.187 94.458C579.539 94.8247 580.052 95.008 580.727 95.008C581.299 95.008 581.739 94.8467 582.047 94.524C582.37 94.1867 582.531 93.7467 582.531 93.204C582.531 92.5 582.304 91.994 581.849 91.686C581.409 91.3633 580.698 91.202 579.715 91.202H579.011V88.144H579.715C580.463 88.144 581.064 88.0193 581.519 87.77C581.988 87.506 582.223 87.044 582.223 86.384C582.223 85.856 582.076 85.4453 581.783 85.152C581.49 84.8587 581.086 84.712 580.573 84.712C580.016 84.712 579.598 84.8807 579.319 85.218C579.055 85.5553 578.901 85.9733 578.857 86.472H575.183Z" fill="#1D371C"/>
<path d="M469.656 109.696V118H468.564V111.808L465.804 118H465.036L462.264 111.796V118H461.172V109.696H462.348L465.42 116.56L468.492 109.696H469.656ZM471.1 114.688C471.1 114.016 471.236 113.428 471.508 112.924C471.78 112.412 472.152 112.016 472.624 111.736C473.104 111.456 473.636 111.316 474.22 111.316C474.796 111.316 475.296 111.44 475.72 111.688C476.144 111.936 476.46 112.248 476.668 112.624V111.424H477.772V118H476.668V116.776C476.452 117.16 476.128 117.48 475.696 117.736C475.272 117.984 474.776 118.108 474.208 118.108C473.624 118.108 473.096 117.964 472.624 117.676C472.152 117.388 471.78 116.984 471.508 116.464C471.236 115.944 471.1 115.352 471.1 114.688ZM476.668 114.7C476.668 114.204 476.568 113.772 476.368 113.404C476.168 113.036 475.896 112.756 475.552 112.564C475.216 112.364 474.844 112.264 474.436 112.264C474.028 112.264 473.656 112.36 473.32 112.552C472.984 112.744 472.716 113.024 472.516 113.392C472.316 113.76 472.216 114.192 472.216 114.688C472.216 115.192 472.316 115.632 472.516 116.008C472.716 116.376 472.984 116.66 473.32 116.86C473.656 117.052 474.028 117.148 474.436 117.148C474.844 117.148 475.216 117.052 475.552 116.86C475.896 116.66 476.168 116.376 476.368 116.008C476.568 115.632 476.668 115.196 476.668 114.7ZM485.282 111.424L481.322 121.096H480.194L481.49 117.928L478.838 111.424H480.05L482.114 116.752L484.154 111.424H485.282Z" fill="#3C3C43" fill-opacity="0.6"/>
</g>
<g filter="url(#filter1_dd_1_126)">
<rect x="528.593" y="158" width="23.7037" height="20" rx="10" fill="#1D371C"/>
<rect x="530.593" y="160" width="19.7037" height="16" rx="8" stroke="white" stroke-width="4"/>
</g>
<defs>
<filter id="filter0_dd_1_126" x="427.259" y="42" width="227.556" height="130" filterUnits="userSpaceOnUse" color-interpolation-filters="sRGB">
<feFlood flood-opacity="0" result="BackgroundImageFix"/>
<feColorMatrix in="SourceAlpha" type="matrix" values="0 0 0 0 0 0 0 0 0 0 0 0 0 0 0 0 0 0 127 0" result="hardAlpha"/>
<feOffset dy="8"/>
<feGaussianBlur stdDeviation="8"/>
<feColorMatrix type="matrix" values="0 0 0 0 0.196487 0 0 0 0 0.196487 0 0 0 0 0.279476 0 0 0 0.06 0"/>
<feBlend mode="multiply" in2="BackgroundImageFix" result="effect1_dropShadow_1_126"/>
<feColorMatrix in="SourceAlpha" type="matrix" values="0 0 0 0 0 0 0 0 0 0 0 0 0 0 0 0 0 0 127 0" result="hardAlpha"/>
<feOffset dy="8"/>
<feGaussianBlur stdDeviation="4"/>
<feColorMatrix type="matrix" values="0 0 0 0 0.196487 0 0 0 0 0.196487 0 0 0 0 0.279476 0 0 0 0.08 0"/>
<feBlend mode="multiply" in2="effect1_dropShadow_1_126" result="effect2_dropShadow_1_126"/>
<feBlend mode="normal" in="SourceGraphic" in2="effect2_dropShadow_1_126" result="shape"/>
</filter>
<filter id="filter1_dd_1_126" x="523.259" y="155.333" width="34.3703" height="30.6667" filterUnits="userSpaceOnUse" color-interpolation-filters="sRGB">
<feFlood flood-opacity="0" result="BackgroundImageFix"/>
<feColorMatrix in="SourceAlpha" type="matrix" values="0 0 0 0 0 0 0 0 0 0 0 0 0 0 0 0 0 0 127 0" result="hardAlpha"/>
<feOffset dy="2.66667"/>
<feGaussianBlur stdDeviation="2.66667"/>
<feColorMatrix type="matrix" values="0 0 0 0 0.196487 0 0 0 0 0.196487 0 0 0 0 0.279476 0 0 0 0.06 0"/>
<feBlend mode="multiply" in2="BackgroundImageFix" result="effect1_dropShadow_1_126"/>
<feColorMatrix in="SourceAlpha" type="matrix" values="0 0 0 0 0 0 0 0 0 0 0 0 0 0 0 0 0 0 127 0" result="hardAlpha"/>
<feOffset dy="2.66667"/>
<feGaussianBlur stdDeviation="1.33333"/>
<feColorMatrix type="matrix" values="0 0 0 0 0.196487 0 0 0 0 0.196487 0 0 0 0 0.279476 0 0 0 0.06 0"/>
<feBlend mode="multiply" in2="effect1_dropShadow_1_126" result="effect2_dropShadow_1_126"/>
<feBlend mode="normal" in="SourceGraphic" in2="effect2_dropShadow_1_126" result="shape"/>
</filter>
<linearGradient id="paint0_linear_1_126" x1="614.518" y1="89.5586" x2="614.518" y2="365.334" gradientUnits="userSpaceOnUse">
<stop stop-color="#7459D9" stop-opacity="0.1"/>
<stop offset="0.998978" stop-color="white" stop-opacity="0"/>
</linearGradient>
<clipPath id="clip0_1_126">
<rect width="128" height="60" fill="white" transform="translate(459.852 64)"/>
</clipPath>
</defs>
</svg>
