<svg width="1032" height="237" viewBox="0 0 1032 237" fill="none" xmlns="http://www.w3.org/2000/svg">
<rect x="0.5" y="0.5" width="327" height="236" rx="39.5" fill="white" stroke="#CCCCCC"/>
<path d="M24.88 54L21.56 48.3H19.36V54H17.54V40.06H22.04C23.0933 40.06 23.98 40.24 24.7 40.6C25.4333 40.96 25.98 41.4467 26.34 42.06C26.7 42.6733 26.88 43.3733 26.88 44.16C26.88 45.12 26.6 45.9667 26.04 46.7C25.4933 47.4333 24.6667 47.92 23.56 48.16L27.06 54H24.88ZM19.36 46.84H22.04C23.0267 46.84 23.7667 46.6 24.26 46.12C24.7533 45.6267 25 44.9733 25 44.16C25 43.3333 24.7533 42.6933 24.26 42.24C23.78 41.7867 23.04 41.56 22.04 41.56H19.36V46.84ZM39.708 48.1C39.708 48.4467 39.688 48.8133 39.648 49.2H30.888C30.9546 50.28 31.3213 51.1267 31.988 51.74C32.668 52.34 33.488 52.64 34.448 52.64C35.2346 52.64 35.888 52.46 36.408 52.1C36.9413 51.7267 37.3146 51.2333 37.528 50.62H39.488C39.1946 51.6733 38.608 52.5333 37.728 53.2C36.848 53.8533 35.7546 54.18 34.448 54.18C33.408 54.18 32.4746 53.9467 31.648 53.48C30.8346 53.0133 30.1946 52.3533 29.728 51.5C29.2613 50.6333 29.028 49.6333 29.028 48.5C29.028 47.3667 29.2546 46.3733 29.708 45.52C30.1613 44.6667 30.7946 44.0133 31.608 43.56C32.4346 43.0933 33.3813 42.86 34.448 42.86C35.488 42.86 36.408 43.0867 37.208 43.54C38.008 43.9933 38.6213 44.62 39.048 45.42C39.488 46.2067 39.708 47.1 39.708 48.1ZM37.828 47.72C37.828 47.0267 37.6746 46.4333 37.368 45.94C37.0613 45.4333 36.6413 45.0533 36.108 44.8C35.588 44.5333 35.008 44.4 34.368 44.4C33.448 44.4 32.6613 44.6933 32.008 45.28C31.368 45.8667 31.0013 46.68 30.908 47.72H37.828ZM46.1903 52.32L49.5903 43.04H51.5303L47.2303 54H45.1103L40.8103 43.04H42.7703L46.1903 52.32ZM63.3213 48.1C63.3213 48.4467 63.3013 48.8133 63.2613 49.2H54.5013C54.5679 50.28 54.9346 51.1267 55.6013 51.74C56.2813 52.34 57.1013 52.64 58.0613 52.64C58.8479 52.64 59.5013 52.46 60.0213 52.1C60.5546 51.7267 60.9279 51.2333 61.1413 50.62H63.1013C62.8079 51.6733 62.2213 52.5333 61.3413 53.2C60.4613 53.8533 59.3679 54.18 58.0613 54.18C57.0213 54.18 56.0879 53.9467 55.2613 53.48C54.4479 53.0133 53.8079 52.3533 53.3413 51.5C52.8746 50.6333 52.6413 49.6333 52.6413 48.5C52.6413 47.3667 52.8679 46.3733 53.3213 45.52C53.7746 44.6667 54.4079 44.0133 55.2213 43.56C56.0479 43.0933 56.9946 42.86 58.0613 42.86C59.1013 42.86 60.0213 43.0867 60.8213 43.54C61.6213 43.9933 62.2346 44.62 62.6613 45.42C63.1013 46.2067 63.3213 47.1 63.3213 48.1ZM61.4413 47.72C61.4413 47.0267 61.2879 46.4333 60.9813 45.94C60.6746 45.4333 60.2546 45.0533 59.7213 44.8C59.2013 44.5333 58.6213 44.4 57.9813 44.4C57.0613 44.4 56.2746 44.6933 55.6213 45.28C54.9813 45.8667 54.6146 46.68 54.5213 47.72H61.4413ZM71.0636 42.84C72.3969 42.84 73.4769 43.2467 74.3036 44.06C75.1303 44.86 75.5436 46.02 75.5436 47.54V54H73.7436V47.8C73.7436 46.7067 73.4703 45.8733 72.9236 45.3C72.3769 44.7133 71.6303 44.42 70.6836 44.42C69.7236 44.42 68.9569 44.72 68.3836 45.32C67.8236 45.92 67.5436 46.7933 67.5436 47.94V54H65.7236V43.04H67.5436V44.6C67.9036 44.04 68.3903 43.6067 69.0036 43.3C69.6303 42.9933 70.3169 42.84 71.0636 42.84ZM88.2366 43.04V54H86.4166V52.38C86.0699 52.94 85.5832 53.38 84.9566 53.7C84.3432 54.0067 83.6632 54.16 82.9166 54.16C82.0632 54.16 81.2966 53.9867 80.6166 53.64C79.9366 53.28 79.3966 52.7467 78.9966 52.04C78.6099 51.3333 78.4166 50.4733 78.4166 49.46V43.04H80.2166V49.22C80.2166 50.3 80.4899 51.1333 81.0366 51.72C81.5832 52.2933 82.3299 52.58 83.2766 52.58C84.2499 52.58 85.0166 52.28 85.5766 51.68C86.1366 51.08 86.4166 50.2067 86.4166 49.06V43.04H88.2366ZM101.31 48.1C101.31 48.4467 101.29 48.8133 101.25 49.2H92.4895C92.5562 50.28 92.9229 51.1267 93.5895 51.74C94.2695 52.34 95.0895 52.64 96.0495 52.64C96.8362 52.64 97.4895 52.46 98.0095 52.1C98.5429 51.7267 98.9162 51.2333 99.1295 50.62H101.09C100.796 51.6733 100.21 52.5333 99.3295 53.2C98.4495 53.8533 97.3562 54.18 96.0495 54.18C95.0095 54.18 94.0762 53.9467 93.2495 53.48C92.4362 53.0133 91.7962 52.3533 91.3295 51.5C90.8629 50.6333 90.6295 49.6333 90.6295 48.5C90.6295 47.3667 90.8562 46.3733 91.3095 45.52C91.7629 44.6667 92.3962 44.0133 93.2095 43.56C94.0362 43.0933 94.9829 42.86 96.0495 42.86C97.0895 42.86 98.0095 43.0867 98.8095 43.54C99.6095 43.9933 100.223 44.62 100.65 45.42C101.09 46.2067 101.31 47.1 101.31 48.1ZM99.4295 47.72C99.4295 47.0267 99.2762 46.4333 98.9695 45.94C98.6629 45.4333 98.2429 45.0533 97.7095 44.8C97.1895 44.5333 96.6095 44.4 95.9695 44.4C95.0495 44.4 94.2629 44.6933 93.6095 45.28C92.9695 45.8667 92.6029 46.68 92.5095 47.72H99.4295Z" fill="#CCCCCC"/>
<path d="M30.232 83.104C30.232 83.984 30 84.8 29.536 85.552C29.088 86.288 28.416 86.896 27.52 87.376C26.64 87.84 25.592 88.096 24.376 88.144V90.088H22.84V88.12C21.144 87.976 19.776 87.472 18.736 86.608C17.696 85.728 17.144 84.536 17.08 83.032H21.448C21.544 83.992 22.008 84.608 22.84 84.88V81.088C21.592 80.768 20.592 80.456 19.84 80.152C19.104 79.848 18.456 79.36 17.896 78.688C17.336 78.016 17.056 77.096 17.056 75.928C17.056 74.472 17.592 73.304 18.664 72.424C19.752 71.544 21.144 71.048 22.84 70.936V68.992H24.376V70.936C26.056 71.064 27.384 71.552 28.36 72.4C29.336 73.248 29.88 74.424 29.992 75.928H25.6C25.504 75.064 25.096 74.504 24.376 74.248V77.968C25.704 78.336 26.728 78.664 27.448 78.952C28.168 79.24 28.808 79.72 29.368 80.392C29.944 81.048 30.232 81.952 30.232 83.104ZM21.4 75.736C21.4 76.136 21.52 76.472 21.76 76.744C22.016 77.016 22.376 77.256 22.84 77.464V74.128C22.392 74.208 22.04 74.384 21.784 74.656C21.528 74.912 21.4 75.272 21.4 75.736ZM24.376 84.952C24.856 84.872 25.232 84.68 25.504 84.376C25.792 84.072 25.936 83.696 25.936 83.248C25.936 82.832 25.8 82.496 25.528 82.24C25.272 81.968 24.888 81.736 24.376 81.544V84.952ZM33.4529 84.712C33.9969 84.28 34.2449 84.08 34.1969 84.112C35.7649 82.816 36.9969 81.752 37.8929 80.92C38.8049 80.088 39.5729 79.216 40.1969 78.304C40.8209 77.392 41.1329 76.504 41.1329 75.64C41.1329 74.984 40.9809 74.472 40.6769 74.104C40.3729 73.736 39.9169 73.552 39.3089 73.552C38.7009 73.552 38.2209 73.784 37.8689 74.248C37.5329 74.696 37.3649 75.336 37.3649 76.168H33.4049C33.4369 74.808 33.7249 73.672 34.2689 72.76C34.8289 71.848 35.5569 71.176 36.4529 70.744C37.3649 70.312 38.3729 70.096 39.4769 70.096C41.3809 70.096 42.8129 70.584 43.7729 71.56C44.7489 72.536 45.2369 73.808 45.2369 75.376C45.2369 77.088 44.6529 78.68 43.4849 80.152C42.3169 81.608 40.8289 83.032 39.0209 84.424H45.5009V87.76H33.4529V84.712ZM60.3638 74.056H52.8758V77.368C53.1958 77.016 53.6438 76.728 54.2198 76.504C54.7958 76.28 55.4198 76.168 56.0918 76.168C57.2918 76.168 58.2838 76.44 59.0678 76.984C59.8678 77.528 60.4518 78.232 60.8198 79.096C61.1878 79.96 61.3718 80.896 61.3718 81.904C61.3718 83.776 60.8438 85.264 59.7878 86.368C58.7318 87.456 57.2438 88 55.3238 88C54.0438 88 52.9318 87.784 51.9878 87.352C51.0438 86.904 50.3158 86.288 49.8038 85.504C49.2918 84.72 49.0118 83.816 48.9638 82.792H52.9718C53.0678 83.288 53.2998 83.704 53.6678 84.04C54.0358 84.36 54.5398 84.52 55.1798 84.52C55.9318 84.52 56.4918 84.28 56.8598 83.8C57.2278 83.32 57.4118 82.68 57.4118 81.88C57.4118 81.096 57.2198 80.496 56.8358 80.08C56.4518 79.664 55.8918 79.456 55.1558 79.456C54.6118 79.456 54.1638 79.592 53.8118 79.864C53.4598 80.12 53.2278 80.464 53.1158 80.896H49.1558V70.456H60.3638V74.056ZM64.3572 79C64.3572 76.248 64.8852 74.08 65.9412 72.496C67.0132 70.912 68.7332 70.12 71.1012 70.12C73.4692 70.12 75.1812 70.912 76.2372 72.496C77.3092 74.08 77.8452 76.248 77.8452 79C77.8452 81.784 77.3092 83.968 76.2372 85.552C75.1812 87.136 73.4692 87.928 71.1012 87.928C68.7332 87.928 67.0132 87.136 65.9412 85.552C64.8852 83.968 64.3572 81.784 64.3572 79ZM73.8132 79C73.8132 77.384 73.6372 76.144 73.2852 75.28C72.9332 74.4 72.2052 73.96 71.1012 73.96C69.9972 73.96 69.2692 74.4 68.9172 75.28C68.5652 76.144 68.3892 77.384 68.3892 79C68.3892 80.088 68.4532 80.992 68.5812 81.712C68.7092 82.416 68.9652 82.992 69.3492 83.44C69.7492 83.872 70.3332 84.088 71.1012 84.088C71.8692 84.088 72.4452 83.872 72.8292 83.44C73.2292 82.992 73.4932 82.416 73.6212 81.712C73.7492 80.992 73.8132 80.088 73.8132 79ZM80.7334 79C80.7334 76.248 81.2614 74.08 82.3174 72.496C83.3894 70.912 85.1094 70.12 87.4774 70.12C89.8454 70.12 91.5574 70.912 92.6134 72.496C93.6854 74.08 94.2214 76.248 94.2214 79C94.2214 81.784 93.6854 83.968 92.6134 85.552C91.5574 87.136 89.8454 87.928 87.4774 87.928C85.1094 87.928 83.3894 87.136 82.3174 85.552C81.2614 83.968 80.7334 81.784 80.7334 79ZM90.1894 79C90.1894 77.384 90.0134 76.144 89.6614 75.28C89.3094 74.4 88.5814 73.96 87.4774 73.96C86.3734 73.96 85.6454 74.4 85.2934 75.28C84.9414 76.144 84.7654 77.384 84.7654 79C84.7654 80.088 84.8294 80.992 84.9574 81.712C85.0854 82.416 85.3414 82.992 85.7254 83.44C86.1254 83.872 86.7094 84.088 87.4774 84.088C88.2454 84.088 88.8214 83.872 89.2054 83.44C89.6054 82.992 89.8694 82.416 89.9974 81.712C90.1254 80.992 90.1894 80.088 90.1894 79ZM99.4377 88.192C98.7177 88.192 98.1257 87.984 97.6617 87.568C97.2137 87.136 96.9897 86.608 96.9897 85.984C96.9897 85.344 97.2137 84.808 97.6617 84.376C98.1257 83.944 98.7177 83.728 99.4377 83.728C100.142 83.728 100.718 83.944 101.166 84.376C101.63 84.808 101.862 85.344 101.862 85.984C101.862 86.608 101.63 87.136 101.166 87.568C100.718 87.984 100.142 88.192 99.4377 88.192ZM115.787 73.552L109.763 88H105.563L111.659 74.008H104.195V70.504H115.787V73.552ZM118.167 79C118.167 76.248 118.695 74.08 119.751 72.496C120.823 70.912 122.543 70.12 124.911 70.12C127.279 70.12 128.991 70.912 130.047 72.496C131.119 74.08 131.655 76.248 131.655 79C131.655 81.784 131.119 83.968 130.047 85.552C128.991 87.136 127.279 87.928 124.911 87.928C122.543 87.928 120.823 87.136 119.751 85.552C118.695 83.968 118.167 81.784 118.167 79ZM127.623 79C127.623 77.384 127.447 76.144 127.095 75.28C126.743 74.4 126.015 73.96 124.911 73.96C123.807 73.96 123.079 74.4 122.727 75.28C122.375 76.144 122.199 77.384 122.199 79C122.199 80.088 122.263 80.992 122.391 81.712C122.519 82.416 122.775 82.992 123.159 83.44C123.559 83.872 124.143 84.088 124.911 84.088C125.679 84.088 126.255 83.872 126.639 83.44C127.039 82.992 127.303 82.416 127.431 81.712C127.559 80.992 127.623 80.088 127.623 79Z" fill="#353535"/>
<path d="M287 57.75H281C275.57 57.75 273.25 55.43 273.25 50V44C273.25 38.57 275.57 36.25 281 36.25H287C292.43 36.25 294.75 38.57 294.75 44V50C294.75 55.43 292.43 57.75 287 57.75ZM281 37.75C276.39 37.75 274.75 39.39 274.75 44V50C274.75 54.61 276.39 56.25 281 56.25H287C291.61 56.25 293.25 54.61 293.25 50V44C293.25 39.39 291.61 37.75 287 37.75H281Z" fill="#CCCCCC"/>
<path d="M279.33 50.238C279.17 50.238 279.01 50.188 278.87 50.078C278.792 50.0182 278.726 49.9437 278.677 49.8586C278.628 49.7735 278.595 49.6795 278.582 49.582C278.569 49.4845 278.576 49.3854 278.601 49.2903C278.626 49.1953 278.67 49.1061 278.73 49.028L281.11 45.938C281.4 45.568 281.81 45.328 282.28 45.268C282.74 45.208 283.21 45.338 283.58 45.628L285.41 47.068C285.48 47.128 285.55 47.128 285.6 47.118C285.64 47.118 285.71 47.098 285.77 47.018L288.08 44.038C288.14 43.9596 288.215 43.8939 288.3 43.8449C288.385 43.7958 288.48 43.7642 288.578 43.7521C288.675 43.74 288.775 43.7476 288.87 43.7743C288.964 43.8011 289.053 43.8465 289.13 43.908C289.46 44.158 289.52 44.628 289.26 44.958L286.95 47.938C286.66 48.308 286.25 48.548 285.78 48.598C285.31 48.658 284.85 48.528 284.48 48.238L282.65 46.798C282.624 46.7755 282.594 46.7593 282.561 46.7506C282.528 46.7419 282.493 46.741 282.46 46.748C282.42 46.748 282.35 46.768 282.29 46.848L279.91 49.938C279.78 50.138 279.56 50.238 279.33 50.238V50.238Z" fill="#CCCCCC"/>
<rect x="224" y="126" width="16" height="95" rx="8" fill="url(#paint0_linear_1_297)"/>
<rect x="256" y="116" width="16" height="105" rx="8" fill="url(#paint1_linear_1_297)"/>
<rect x="192" y="136" width="16" height="85" rx="8" fill="url(#paint2_linear_1_297)"/>
<rect x="160" y="146" width="16" height="75" rx="8" fill="url(#paint3_linear_1_297)"/>
<rect x="128" y="156" width="16" height="65" rx="8" fill="url(#paint4_linear_1_297)"/>
<rect x="96" y="166" width="16" height="55" rx="8" fill="url(#paint5_linear_1_297)"/>
<rect x="64" y="151" width="16" height="70" rx="8" fill="url(#paint6_linear_1_297)"/>
<rect x="32" y="161" width="16" height="60" rx="8" fill="url(#paint7_linear_1_297)"/>
<rect x="352.5" y="0.5" width="327" height="236" rx="39.5" fill="white" stroke="#CCCCCC"/>
<path d="M371.36 41.54V46.2H376.44V47.7H371.36V52.5H377.04V54H369.54V40.04H377.04V41.54H371.36ZM385.514 54L382.914 49.92L380.414 54H378.514L382.054 48.56L378.514 43.04H380.574L383.174 47.1L385.654 43.04H387.554L384.034 48.46L387.574 54H385.514ZM391.184 45.06C391.544 44.4333 392.078 43.9133 392.784 43.5C393.504 43.0733 394.338 42.86 395.284 42.86C396.258 42.86 397.138 43.0933 397.924 43.56C398.724 44.0267 399.351 44.6867 399.804 45.54C400.258 46.38 400.484 47.36 400.484 48.48C400.484 49.5867 400.258 50.5733 399.804 51.44C399.351 52.3067 398.724 52.98 397.924 53.46C397.138 53.94 396.258 54.18 395.284 54.18C394.351 54.18 393.524 53.9733 392.804 53.56C392.098 53.1333 391.558 52.6067 391.184 51.98V59.2H389.364V43.04H391.184V45.06ZM398.624 48.48C398.624 47.6533 398.458 46.9333 398.124 46.32C397.791 45.7067 397.338 45.24 396.764 44.92C396.204 44.6 395.584 44.44 394.904 44.44C394.238 44.44 393.618 44.6067 393.044 44.94C392.484 45.26 392.031 45.7333 391.684 46.36C391.351 46.9733 391.184 47.6867 391.184 48.5C391.184 49.3267 391.351 50.0533 391.684 50.68C392.031 51.2933 392.484 51.7667 393.044 52.1C393.618 52.42 394.238 52.58 394.904 52.58C395.584 52.58 396.204 52.42 396.764 52.1C397.338 51.7667 397.791 51.2933 398.124 50.68C398.458 50.0533 398.624 49.32 398.624 48.48ZM412.88 48.1C412.88 48.4467 412.86 48.8133 412.82 49.2H404.06C404.127 50.28 404.493 51.1267 405.16 51.74C405.84 52.34 406.66 52.64 407.62 52.64C408.407 52.64 409.06 52.46 409.58 52.1C410.113 51.7267 410.487 51.2333 410.7 50.62H412.66C412.367 51.6733 411.78 52.5333 410.9 53.2C410.02 53.8533 408.927 54.18 407.62 54.18C406.58 54.18 405.647 53.9467 404.82 53.48C404.007 53.0133 403.367 52.3533 402.9 51.5C402.433 50.6333 402.2 49.6333 402.2 48.5C402.2 47.3667 402.427 46.3733 402.88 45.52C403.333 44.6667 403.967 44.0133 404.78 43.56C405.607 43.0933 406.553 42.86 407.62 42.86C408.66 42.86 409.58 43.0867 410.38 43.54C411.18 43.9933 411.793 44.62 412.22 45.42C412.66 46.2067 412.88 47.1 412.88 48.1ZM411 47.72C411 47.0267 410.847 46.4333 410.54 45.94C410.233 45.4333 409.813 45.0533 409.28 44.8C408.76 44.5333 408.18 44.4 407.54 44.4C406.62 44.4 405.833 44.6933 405.18 45.28C404.54 45.8667 404.173 46.68 404.08 47.72H411ZM420.622 42.84C421.956 42.84 423.036 43.2467 423.862 44.06C424.689 44.86 425.102 46.02 425.102 47.54V54H423.302V47.8C423.302 46.7067 423.029 45.8733 422.482 45.3C421.936 44.7133 421.189 44.42 420.242 44.42C419.282 44.42 418.516 44.72 417.942 45.32C417.382 45.92 417.102 46.7933 417.102 47.94V54H415.282V43.04H417.102V44.6C417.462 44.04 417.949 43.6067 418.562 43.3C419.189 42.9933 419.876 42.84 420.622 42.84ZM431.955 54.18C431.115 54.18 430.362 54.04 429.695 53.76C429.028 53.4667 428.502 53.0667 428.115 52.56C427.728 52.04 427.515 51.4467 427.475 50.78H429.355C429.408 51.3267 429.662 51.7733 430.115 52.12C430.582 52.4667 431.188 52.64 431.935 52.64C432.628 52.64 433.175 52.4867 433.575 52.18C433.975 51.8733 434.175 51.4867 434.175 51.02C434.175 50.54 433.962 50.1867 433.535 49.96C433.108 49.72 432.448 49.4867 431.555 49.26C430.742 49.0467 430.075 48.8333 429.555 48.62C429.048 48.3933 428.608 48.0667 428.235 47.64C427.875 47.2 427.695 46.6267 427.695 45.92C427.695 45.36 427.862 44.8467 428.195 44.38C428.528 43.9133 429.002 43.5467 429.615 43.28C430.228 43 430.928 42.86 431.715 42.86C432.928 42.86 433.908 43.1667 434.655 43.78C435.402 44.3933 435.802 45.2333 435.855 46.3H434.035C433.995 45.7267 433.762 45.2667 433.335 44.92C432.922 44.5733 432.362 44.4 431.655 44.4C431.002 44.4 430.482 44.54 430.095 44.82C429.708 45.1 429.515 45.4667 429.515 45.92C429.515 46.28 429.628 46.58 429.855 46.82C430.095 47.0467 430.388 47.2333 430.735 47.38C431.095 47.5133 431.588 47.6667 432.215 47.84C433.002 48.0533 433.642 48.2667 434.135 48.48C434.628 48.68 435.048 48.9867 435.395 49.4C435.755 49.8133 435.942 50.3533 435.955 51.02C435.955 51.62 435.788 52.16 435.455 52.64C435.122 53.12 434.648 53.5 434.035 53.78C433.435 54.0467 432.742 54.18 431.955 54.18ZM448.524 48.1C448.524 48.4467 448.504 48.8133 448.464 49.2H439.704C439.771 50.28 440.138 51.1267 440.804 51.74C441.484 52.34 442.304 52.64 443.264 52.64C444.051 52.64 444.704 52.46 445.224 52.1C445.758 51.7267 446.131 51.2333 446.344 50.62H448.304C448.011 51.6733 447.424 52.5333 446.544 53.2C445.664 53.8533 444.571 54.18 443.264 54.18C442.224 54.18 441.291 53.9467 440.464 53.48C439.651 53.0133 439.011 52.3533 438.544 51.5C438.078 50.6333 437.844 49.6333 437.844 48.5C437.844 47.3667 438.071 46.3733 438.524 45.52C438.978 44.6667 439.611 44.0133 440.424 43.56C441.251 43.0933 442.198 42.86 443.264 42.86C444.304 42.86 445.224 43.0867 446.024 43.54C446.824 43.9933 447.438 44.62 447.864 45.42C448.304 46.2067 448.524 47.1 448.524 48.1ZM446.644 47.72C446.644 47.0267 446.491 46.4333 446.184 45.94C445.878 45.4333 445.458 45.0533 444.924 44.8C444.404 44.5333 443.824 44.4 443.184 44.4C442.264 44.4 441.478 44.6933 440.824 45.28C440.184 45.8667 439.818 46.68 439.724 47.72H446.644ZM454.807 54.18C453.967 54.18 453.213 54.04 452.547 53.76C451.88 53.4667 451.353 53.0667 450.967 52.56C450.58 52.04 450.367 51.4467 450.327 50.78H452.207C452.26 51.3267 452.513 51.7733 452.967 52.12C453.433 52.4667 454.04 52.64 454.787 52.64C455.48 52.64 456.027 52.4867 456.427 52.18C456.827 51.8733 457.027 51.4867 457.027 51.02C457.027 50.54 456.813 50.1867 456.387 49.96C455.96 49.72 455.3 49.4867 454.407 49.26C453.593 49.0467 452.927 48.8333 452.407 48.62C451.9 48.3933 451.46 48.0667 451.087 47.64C450.727 47.2 450.547 46.6267 450.547 45.92C450.547 45.36 450.713 44.8467 451.047 44.38C451.38 43.9133 451.853 43.5467 452.467 43.28C453.08 43 453.78 42.86 454.567 42.86C455.78 42.86 456.76 43.1667 457.507 43.78C458.253 44.3933 458.653 45.2333 458.707 46.3H456.887C456.847 45.7267 456.613 45.2667 456.187 44.92C455.773 44.5733 455.213 44.4 454.507 44.4C453.853 44.4 453.333 44.54 452.947 44.82C452.56 45.1 452.367 45.4667 452.367 45.92C452.367 46.28 452.48 46.58 452.707 46.82C452.947 47.0467 453.24 47.2333 453.587 47.38C453.947 47.5133 454.44 47.6667 455.067 47.84C455.853 48.0533 456.493 48.2667 456.987 48.48C457.48 48.68 457.9 48.9867 458.247 49.4C458.607 49.8133 458.793 50.3533 458.807 51.02C458.807 51.62 458.64 52.16 458.307 52.64C457.973 53.12 457.5 53.5 456.887 53.78C456.287 54.0467 455.593 54.18 454.807 54.18Z" fill="#CCCCCC"/>
<path d="M382.232 83.104C382.232 83.984 382 84.8 381.536 85.552C381.088 86.288 380.416 86.896 379.52 87.376C378.64 87.84 377.592 88.096 376.376 88.144V90.088H374.84V88.12C373.144 87.976 371.776 87.472 370.736 86.608C369.696 85.728 369.144 84.536 369.08 83.032H373.448C373.544 83.992 374.008 84.608 374.84 84.88V81.088C373.592 80.768 372.592 80.456 371.84 80.152C371.104 79.848 370.456 79.36 369.896 78.688C369.336 78.016 369.056 77.096 369.056 75.928C369.056 74.472 369.592 73.304 370.664 72.424C371.752 71.544 373.144 71.048 374.84 70.936V68.992H376.376V70.936C378.056 71.064 379.384 71.552 380.36 72.4C381.336 73.248 381.88 74.424 381.992 75.928H377.6C377.504 75.064 377.096 74.504 376.376 74.248V77.968C377.704 78.336 378.728 78.664 379.448 78.952C380.168 79.24 380.808 79.72 381.368 80.392C381.944 81.048 382.232 81.952 382.232 83.104ZM373.4 75.736C373.4 76.136 373.52 76.472 373.76 76.744C374.016 77.016 374.376 77.256 374.84 77.464V74.128C374.392 74.208 374.04 74.384 373.784 74.656C373.528 74.912 373.4 75.272 373.4 75.736ZM376.376 84.952C376.856 84.872 377.232 84.68 377.504 84.376C377.792 84.072 377.936 83.696 377.936 83.248C377.936 82.832 377.8 82.496 377.528 82.24C377.272 81.968 376.888 81.736 376.376 81.544V84.952ZM385.453 84.712C385.997 84.28 386.245 84.08 386.197 84.112C387.765 82.816 388.997 81.752 389.893 80.92C390.805 80.088 391.573 79.216 392.197 78.304C392.821 77.392 393.133 76.504 393.133 75.64C393.133 74.984 392.981 74.472 392.677 74.104C392.373 73.736 391.917 73.552 391.309 73.552C390.701 73.552 390.221 73.784 389.869 74.248C389.533 74.696 389.365 75.336 389.365 76.168H385.405C385.437 74.808 385.725 73.672 386.269 72.76C386.829 71.848 387.557 71.176 388.453 70.744C389.365 70.312 390.373 70.096 391.477 70.096C393.381 70.096 394.813 70.584 395.773 71.56C396.749 72.536 397.237 73.808 397.237 75.376C397.237 77.088 396.653 78.68 395.485 80.152C394.317 81.608 392.829 83.032 391.021 84.424H397.501V87.76H385.453V84.712ZM400.028 79C400.028 76.248 400.556 74.08 401.612 72.496C402.684 70.912 404.404 70.12 406.772 70.12C409.14 70.12 410.852 70.912 411.908 72.496C412.98 74.08 413.516 76.248 413.516 79C413.516 81.784 412.98 83.968 411.908 85.552C410.852 87.136 409.14 87.928 406.772 87.928C404.404 87.928 402.684 87.136 401.612 85.552C400.556 83.968 400.028 81.784 400.028 79ZM409.484 79C409.484 77.384 409.308 76.144 408.956 75.28C408.604 74.4 407.876 73.96 406.772 73.96C405.668 73.96 404.94 74.4 404.588 75.28C404.236 76.144 404.06 77.384 404.06 79C404.06 80.088 404.124 80.992 404.252 81.712C404.38 82.416 404.636 82.992 405.02 83.44C405.42 83.872 406.004 84.088 406.772 84.088C407.54 84.088 408.116 83.872 408.5 83.44C408.9 82.992 409.164 82.416 409.292 81.712C409.42 80.992 409.484 80.088 409.484 79ZM416.404 79C416.404 76.248 416.932 74.08 417.988 72.496C419.06 70.912 420.78 70.12 423.148 70.12C425.516 70.12 427.228 70.912 428.284 72.496C429.356 74.08 429.892 76.248 429.892 79C429.892 81.784 429.356 83.968 428.284 85.552C427.228 87.136 425.516 87.928 423.148 87.928C420.78 87.928 419.06 87.136 417.988 85.552C416.932 83.968 416.404 81.784 416.404 79ZM425.86 79C425.86 77.384 425.684 76.144 425.332 75.28C424.98 74.4 424.252 73.96 423.148 73.96C422.044 73.96 421.316 74.4 420.964 75.28C420.612 76.144 420.436 77.384 420.436 79C420.436 80.088 420.5 80.992 420.628 81.712C420.756 82.416 421.012 82.992 421.396 83.44C421.796 83.872 422.38 84.088 423.148 84.088C423.916 84.088 424.492 83.872 424.876 83.44C425.276 82.992 425.54 82.416 425.668 81.712C425.796 80.992 425.86 80.088 425.86 79ZM432.78 79C432.78 76.248 433.308 74.08 434.364 72.496C435.436 70.912 437.156 70.12 439.524 70.12C441.892 70.12 443.604 70.912 444.66 72.496C445.732 74.08 446.268 76.248 446.268 79C446.268 81.784 445.732 83.968 444.66 85.552C443.604 87.136 441.892 87.928 439.524 87.928C437.156 87.928 435.436 87.136 434.364 85.552C433.308 83.968 432.78 81.784 432.78 79ZM442.236 79C442.236 77.384 442.06 76.144 441.708 75.28C441.356 74.4 440.628 73.96 439.524 73.96C438.42 73.96 437.692 74.4 437.34 75.28C436.988 76.144 436.812 77.384 436.812 79C436.812 80.088 436.876 80.992 437.004 81.712C437.132 82.416 437.388 82.992 437.772 83.44C438.172 83.872 438.756 84.088 439.524 84.088C440.292 84.088 440.868 83.872 441.252 83.44C441.652 82.992 441.916 82.416 442.044 81.712C442.172 80.992 442.236 80.088 442.236 79ZM451.485 88.192C450.765 88.192 450.173 87.984 449.709 87.568C449.261 87.136 449.037 86.608 449.037 85.984C449.037 85.344 449.261 84.808 449.709 84.376C450.173 83.944 450.765 83.728 451.485 83.728C452.189 83.728 452.765 83.944 453.213 84.376C453.677 84.808 453.909 85.344 453.909 85.984C453.909 86.608 453.677 87.136 453.213 87.568C452.765 87.984 452.189 88.192 451.485 88.192ZM461.066 82.864C461.306 84.128 462.042 84.76 463.274 84.76C464.122 84.76 464.722 84.384 465.074 83.632C465.426 82.88 465.602 81.656 465.602 79.96C465.25 80.456 464.77 80.84 464.162 81.112C463.554 81.384 462.874 81.52 462.122 81.52C461.098 81.52 460.186 81.312 459.386 80.896C458.586 80.464 457.954 79.832 457.49 79C457.042 78.152 456.818 77.128 456.818 75.928C456.818 74.744 457.058 73.712 457.538 72.832C458.034 71.952 458.73 71.272 459.626 70.792C460.538 70.312 461.61 70.072 462.842 70.072C465.21 70.072 466.866 70.808 467.81 72.28C468.754 73.752 469.226 75.92 469.226 78.784C469.226 80.864 469.034 82.584 468.65 83.944C468.282 85.288 467.65 86.312 466.754 87.016C465.874 87.72 464.666 88.072 463.13 88.072C461.914 88.072 460.874 87.832 460.01 87.352C459.162 86.872 458.506 86.24 458.042 85.456C457.594 84.672 457.338 83.808 457.274 82.864H461.066ZM463.058 78.28C463.73 78.28 464.266 78.08 464.666 77.68C465.066 77.264 465.266 76.704 465.266 76C465.266 75.232 465.058 74.64 464.642 74.224C464.226 73.808 463.666 73.6 462.962 73.6C462.258 73.6 461.698 73.816 461.282 74.248C460.882 74.664 460.682 75.24 460.682 75.976C460.682 76.664 460.882 77.224 461.282 77.656C461.698 78.072 462.29 78.28 463.058 78.28ZM484.472 74.056H476.984V77.368C477.304 77.016 477.752 76.728 478.328 76.504C478.904 76.28 479.528 76.168 480.2 76.168C481.4 76.168 482.392 76.44 483.176 76.984C483.976 77.528 484.56 78.232 484.928 79.096C485.296 79.96 485.48 80.896 485.48 81.904C485.48 83.776 484.952 85.264 483.896 86.368C482.84 87.456 481.352 88 479.432 88C478.152 88 477.04 87.784 476.096 87.352C475.152 86.904 474.424 86.288 473.912 85.504C473.4 84.72 473.12 83.816 473.072 82.792H477.08C477.176 83.288 477.408 83.704 477.776 84.04C478.144 84.36 478.648 84.52 479.288 84.52C480.04 84.52 480.6 84.28 480.968 83.8C481.336 83.32 481.52 82.68 481.52 81.88C481.52 81.096 481.328 80.496 480.944 80.08C480.56 79.664 480 79.456 479.264 79.456C478.72 79.456 478.272 79.592 477.92 79.864C477.568 80.12 477.336 80.464 477.224 80.896H473.264V70.456H484.472V74.056Z" fill="#353535"/>
<rect x="576" y="126" width="16" height="95" rx="8" fill="url(#paint8_linear_1_297)"/>
<rect x="608" y="151" width="16" height="70" rx="8" fill="url(#paint9_linear_1_297)"/>
<rect x="544" y="136" width="16" height="85" rx="8" fill="url(#paint10_linear_1_297)"/>
<rect x="512" y="146" width="16" height="75" rx="8" fill="url(#paint11_linear_1_297)"/>
<rect x="480" y="136" width="16" height="85" rx="8" fill="url(#paint12_linear_1_297)"/>
<rect x="448" y="166" width="16" height="55" rx="8" fill="url(#paint13_linear_1_297)"/>
<rect x="416" y="151" width="16" height="70" rx="8" fill="url(#paint14_linear_1_297)"/>
<rect x="384" y="141" width="16" height="80" rx="8" fill="url(#paint15_linear_1_297)"/>
<path d="M651.5 53.251C651.31 53.251 651.12 53.181 650.97 53.031L647.42 49.481L646.33 51.121C646.21 51.311 646 51.431 645.78 51.451C645.67 51.4622 645.559 51.4483 645.455 51.4101C645.351 51.372 645.257 51.3108 645.18 51.231L641.98 48.031C641.841 47.8899 641.762 47.6994 641.762 47.501C641.762 47.3026 641.841 47.1121 641.98 46.971C642.27 46.681 642.75 46.681 643.04 46.971L645.59 49.521L646.68 47.881C646.8 47.701 647 47.581 647.23 47.551C647.46 47.531 647.68 47.611 647.83 47.771L652.03 51.971C652.32 52.261 652.32 52.741 652.03 53.031C651.88 53.181 651.69 53.251 651.5 53.251V53.251Z" fill="#CCCCCC"/>
<path d="M651.5 53.25H649.5C649.09 53.25 648.75 52.91 648.75 52.5C648.75 52.09 649.09 51.75 649.5 51.75H650.75V50.5C650.75 50.09 651.09 49.75 651.5 49.75C651.91 49.75 652.25 50.09 652.25 50.5V52.5C652.25 52.91 651.91 53.25 651.5 53.25Z" fill="#CCCCCC"/>
<path d="M650 60.75H644C638.57 60.75 636.25 58.43 636.25 53V47C636.25 41.57 638.57 39.25 644 39.25H650C655.43 39.25 657.75 41.57 657.75 47V53C657.75 58.43 655.43 60.75 650 60.75ZM644 40.75C639.39 40.75 637.75 42.39 637.75 47V53C637.75 57.61 639.39 59.25 644 59.25H650C654.61 59.25 656.25 57.61 656.25 53V47C656.25 42.39 654.61 40.75 650 40.75H644Z" fill="#CCCCCC"/>
<rect x="704.5" y="0.5" width="327" height="236" rx="39.5" fill="white" stroke="#CCCCCC"/>
<path d="M725.96 54.14C725.04 54.14 724.213 53.98 723.48 53.66C722.76 53.3267 722.193 52.8733 721.78 52.3C721.367 51.7133 721.153 51.04 721.14 50.28H723.08C723.147 50.9333 723.413 51.4867 723.88 51.94C724.36 52.38 725.053 52.6 725.96 52.6C726.827 52.6 727.507 52.3867 728 51.96C728.507 51.52 728.76 50.96 728.76 50.28C728.76 49.7467 728.613 49.3133 728.32 48.98C728.027 48.6467 727.66 48.3933 727.22 48.22C726.78 48.0467 726.187 47.86 725.44 47.66C724.52 47.42 723.78 47.18 723.22 46.94C722.673 46.7 722.2 46.3267 721.8 45.82C721.413 45.3 721.22 44.6067 721.22 43.74C721.22 42.98 721.413 42.3067 721.8 41.72C722.187 41.1333 722.727 40.68 723.42 40.36C724.127 40.04 724.933 39.88 725.84 39.88C727.147 39.88 728.213 40.2067 729.04 40.86C729.88 41.5133 730.353 42.38 730.46 43.46H728.46C728.393 42.9267 728.113 42.46 727.62 42.06C727.127 41.6467 726.473 41.44 725.66 41.44C724.9 41.44 724.28 41.64 723.8 42.04C723.32 42.4267 723.08 42.9733 723.08 43.68C723.08 44.1867 723.22 44.6 723.5 44.92C723.793 45.24 724.147 45.4867 724.56 45.66C724.987 45.82 725.58 46.0067 726.34 46.22C727.26 46.4733 728 46.7267 728.56 46.98C729.12 47.22 729.6 47.6 730 48.12C730.4 48.6267 730.6 49.32 730.6 50.2C730.6 50.88 730.42 51.52 730.06 52.12C729.7 52.72 729.167 53.2067 728.46 53.58C727.753 53.9533 726.92 54.14 725.96 54.14ZM732.598 48.48C732.598 47.36 732.825 46.38 733.278 45.54C733.732 44.6867 734.352 44.0267 735.138 43.56C735.938 43.0933 736.825 42.86 737.798 42.86C738.758 42.86 739.592 43.0667 740.298 43.48C741.005 43.8933 741.532 44.4133 741.878 45.04V43.04H743.718V54H741.878V51.96C741.518 52.6 740.978 53.1333 740.258 53.56C739.552 53.9733 738.725 54.18 737.778 54.18C736.805 54.18 735.925 53.94 735.138 53.46C734.352 52.98 733.732 52.3067 733.278 51.44C732.825 50.5733 732.598 49.5867 732.598 48.48ZM741.878 48.5C741.878 47.6733 741.712 46.9533 741.378 46.34C741.045 45.7267 740.592 45.26 740.018 44.94C739.458 44.6067 738.838 44.44 738.158 44.44C737.478 44.44 736.858 44.6 736.298 44.92C735.738 45.24 735.292 45.7067 734.958 46.32C734.625 46.9333 734.458 47.6533 734.458 48.48C734.458 49.32 734.625 50.0533 734.958 50.68C735.292 51.2933 735.738 51.7667 736.298 52.1C736.858 52.42 737.478 52.58 738.158 52.58C738.838 52.58 739.458 52.42 740.018 52.1C740.592 51.7667 741.045 51.2933 741.378 50.68C741.712 50.0533 741.878 49.3267 741.878 48.5ZM748.614 39.2V54H746.794V39.2H748.614ZM761.716 48.1C761.716 48.4467 761.696 48.8133 761.656 49.2H752.896C752.962 50.28 753.329 51.1267 753.996 51.74C754.676 52.34 755.496 52.64 756.456 52.64C757.242 52.64 757.896 52.46 758.416 52.1C758.949 51.7267 759.322 51.2333 759.536 50.62H761.496C761.202 51.6733 760.616 52.5333 759.736 53.2C758.856 53.8533 757.762 54.18 756.456 54.18C755.416 54.18 754.482 53.9467 753.656 53.48C752.842 53.0133 752.202 52.3533 751.736 51.5C751.269 50.6333 751.036 49.6333 751.036 48.5C751.036 47.3667 751.262 46.3733 751.716 45.52C752.169 44.6667 752.802 44.0133 753.616 43.56C754.442 43.0933 755.389 42.86 756.456 42.86C757.496 42.86 758.416 43.0867 759.216 43.54C760.016 43.9933 760.629 44.62 761.056 45.42C761.496 46.2067 761.716 47.1 761.716 48.1ZM759.836 47.72C759.836 47.0267 759.682 46.4333 759.376 45.94C759.069 45.4333 758.649 45.0533 758.116 44.8C757.596 44.5333 757.016 44.4 756.376 44.4C755.456 44.4 754.669 44.6933 754.016 45.28C753.376 45.8667 753.009 46.68 752.916 47.72H759.836ZM767.998 54.18C767.158 54.18 766.405 54.04 765.738 53.76C765.071 53.4667 764.545 53.0667 764.158 52.56C763.771 52.04 763.558 51.4467 763.518 50.78H765.398C765.451 51.3267 765.705 51.7733 766.158 52.12C766.625 52.4667 767.231 52.64 767.978 52.64C768.671 52.64 769.218 52.4867 769.618 52.18C770.018 51.8733 770.218 51.4867 770.218 51.02C770.218 50.54 770.005 50.1867 769.578 49.96C769.151 49.72 768.491 49.4867 767.598 49.26C766.785 49.0467 766.118 48.8333 765.598 48.62C765.091 48.3933 764.651 48.0667 764.278 47.64C763.918 47.2 763.738 46.6267 763.738 45.92C763.738 45.36 763.905 44.8467 764.238 44.38C764.571 43.9133 765.045 43.5467 765.658 43.28C766.271 43 766.971 42.86 767.758 42.86C768.971 42.86 769.951 43.1667 770.698 43.78C771.445 44.3933 771.845 45.2333 771.898 46.3H770.078C770.038 45.7267 769.805 45.2667 769.378 44.92C768.965 44.5733 768.405 44.4 767.698 44.4C767.045 44.4 766.525 44.54 766.138 44.82C765.751 45.1 765.558 45.4667 765.558 45.92C765.558 46.28 765.671 46.58 765.898 46.82C766.138 47.0467 766.431 47.2333 766.778 47.38C767.138 47.5133 767.631 47.6667 768.258 47.84C769.045 48.0533 769.685 48.2667 770.178 48.48C770.671 48.68 771.091 48.9867 771.438 49.4C771.798 49.8133 771.985 50.3533 771.998 51.02C771.998 51.62 771.831 52.16 771.498 52.64C771.165 53.12 770.691 53.5 770.078 53.78C769.478 54.0467 768.785 54.18 767.998 54.18Z" fill="#CCCCCC"/>
<path d="M732.264 73.552L726.24 88H722.04L728.136 74.008H720.672V70.504H732.264V73.552ZM734.74 84.88V81.568L742.324 70.72H746.908V81.328H748.876V84.88H746.908V88H742.804V84.88H734.74ZM743.092 75.232L739.06 81.328H743.092V75.232ZM763.942 74.056H756.454V77.368C756.774 77.016 757.222 76.728 757.798 76.504C758.374 76.28 758.998 76.168 759.67 76.168C760.87 76.168 761.862 76.44 762.646 76.984C763.446 77.528 764.03 78.232 764.398 79.096C764.766 79.96 764.95 80.896 764.95 81.904C764.95 83.776 764.422 85.264 763.366 86.368C762.31 87.456 760.822 88 758.902 88C757.622 88 756.51 87.784 755.566 87.352C754.622 86.904 753.894 86.288 753.382 85.504C752.87 84.72 752.59 83.816 752.542 82.792H756.55C756.646 83.288 756.878 83.704 757.246 84.04C757.614 84.36 758.118 84.52 758.758 84.52C759.51 84.52 760.07 84.28 760.438 83.8C760.806 83.32 760.99 82.68 760.99 81.88C760.99 81.096 760.798 80.496 760.414 80.08C760.03 79.664 759.47 79.456 758.734 79.456C758.19 79.456 757.742 79.592 757.39 79.864C757.038 80.12 756.806 80.464 756.694 80.896H752.734V70.456H763.942V74.056ZM768.079 75.424C768.143 73.712 768.703 72.392 769.759 71.464C770.815 70.536 772.247 70.072 774.055 70.072C775.255 70.072 776.279 70.28 777.127 70.696C777.991 71.112 778.639 71.68 779.071 72.4C779.519 73.12 779.743 73.928 779.743 74.824C779.743 75.88 779.479 76.744 778.951 77.416C778.423 78.072 777.807 78.52 777.103 78.76V78.856C778.015 79.16 778.735 79.664 779.263 80.368C779.791 81.072 780.055 81.976 780.055 83.08C780.055 84.072 779.823 84.952 779.359 85.72C778.911 86.472 778.247 87.064 777.367 87.496C776.503 87.928 775.471 88.144 774.271 88.144C772.351 88.144 770.815 87.672 769.663 86.728C768.527 85.784 767.927 84.36 767.863 82.456H771.847C771.863 83.16 772.063 83.72 772.447 84.136C772.831 84.536 773.391 84.736 774.127 84.736C774.751 84.736 775.231 84.56 775.567 84.208C775.919 83.84 776.095 83.36 776.095 82.768C776.095 82 775.847 81.448 775.351 81.112C774.871 80.76 774.095 80.584 773.023 80.584H772.255V77.248H773.023C773.839 77.248 774.495 77.112 774.991 76.84C775.503 76.552 775.759 76.048 775.759 75.328C775.759 74.752 775.599 74.304 775.279 73.984C774.959 73.664 774.519 73.504 773.959 73.504C773.351 73.504 772.895 73.688 772.591 74.056C772.303 74.424 772.135 74.88 772.087 75.424H768.079ZM783.187 79C783.187 76.248 783.715 74.08 784.771 72.496C785.843 70.912 787.563 70.12 789.931 70.12C792.299 70.12 794.011 70.912 795.067 72.496C796.139 74.08 796.675 76.248 796.675 79C796.675 81.784 796.139 83.968 795.067 85.552C794.011 87.136 792.299 87.928 789.931 87.928C787.563 87.928 785.843 87.136 784.771 85.552C783.715 83.968 783.187 81.784 783.187 79ZM792.643 79C792.643 77.384 792.467 76.144 792.115 75.28C791.763 74.4 791.035 73.96 789.931 73.96C788.827 73.96 788.099 74.4 787.747 75.28C787.395 76.144 787.219 77.384 787.219 79C787.219 80.088 787.283 80.992 787.411 81.712C787.539 82.416 787.795 82.992 788.179 83.44C788.579 83.872 789.163 84.088 789.931 84.088C790.699 84.088 791.275 83.872 791.659 83.44C792.059 82.992 792.323 82.416 792.451 81.712C792.579 80.992 792.643 80.088 792.643 79Z" fill="#353535"/>
<path d="M983 57.75H977C971.57 57.75 969.25 55.43 969.25 50V44C969.25 38.57 971.57 36.25 977 36.25H983C988.43 36.25 990.75 38.57 990.75 44V50C990.75 55.43 988.43 57.75 983 57.75ZM977 37.75C972.39 37.75 970.75 39.39 970.75 44V50C970.75 54.61 972.39 56.25 977 56.25H983C987.61 56.25 989.25 54.61 989.25 50V44C989.25 39.39 987.61 37.75 983 37.75H977Z" fill="#CCCCCC"/>
<path d="M975.33 50.238C975.17 50.238 975.01 50.188 974.87 50.078C974.792 50.0182 974.726 49.9437 974.677 49.8586C974.628 49.7735 974.596 49.6795 974.583 49.582C974.57 49.4845 974.576 49.3854 974.601 49.2903C974.626 49.1953 974.67 49.1061 974.73 49.028L977.11 45.938C977.4 45.568 977.81 45.328 978.28 45.268C978.74 45.208 979.21 45.338 979.58 45.628L981.41 47.068C981.48 47.128 981.55 47.128 981.6 47.118C981.64 47.118 981.71 47.098 981.77 47.018L984.08 44.038C984.14 43.9596 984.215 43.8939 984.3 43.8449C984.385 43.7958 984.48 43.7642 984.578 43.7521C984.675 43.74 984.775 43.7476 984.87 43.7743C984.964 43.8011 985.053 43.8465 985.13 43.908C985.46 44.158 985.52 44.628 985.26 44.958L982.95 47.938C982.66 48.308 982.25 48.548 981.78 48.598C981.31 48.658 980.85 48.528 980.48 48.238L978.65 46.798C978.624 46.7755 978.594 46.7593 978.561 46.7506C978.528 46.7419 978.493 46.741 978.46 46.748C978.42 46.748 978.35 46.768 978.29 46.848L975.91 49.938C975.78 50.138 975.56 50.238 975.33 50.238V50.238Z" fill="#CCCCCC"/>
<path d="M751.456 206.44V212H750.544V208.192L748.848 212H748.216L746.512 208.192V212H745.6V206.44H746.584L748.536 210.8L750.48 206.44H751.456ZM781.045 206.44V207.184H779.565V212H778.653V207.184H777.165V206.44H781.045ZM814.007 206.44L812.359 212H811.327L810.159 207.792L808.919 212L807.895 212.008L806.319 206.44H807.287L808.439 210.968L809.687 206.44H810.711L811.871 210.944L813.031 206.44H814.007ZM843.149 206.44V207.184H841.669V212H840.757V207.184H839.269V206.44H843.149ZM872.143 206.44V207.184H869.783V208.824H871.623V209.568H869.783V212H868.871V206.44H872.143ZM899.618 212.056C899.245 212.056 898.909 211.992 898.61 211.864C898.311 211.731 898.077 211.544 897.906 211.304C897.735 211.064 897.65 210.784 897.65 210.464H898.626C898.647 210.704 898.741 210.901 898.906 211.056C899.077 211.211 899.314 211.288 899.618 211.288C899.933 211.288 900.178 211.213 900.354 211.064C900.53 210.909 900.618 210.712 900.618 210.472C900.618 210.285 900.562 210.133 900.45 210.016C900.343 209.899 900.207 209.808 900.042 209.744C899.882 209.68 899.658 209.611 899.37 209.536C899.007 209.44 898.711 209.344 898.482 209.248C898.258 209.147 898.066 208.992 897.906 208.784C897.746 208.576 897.666 208.299 897.666 207.952C897.666 207.632 897.746 207.352 897.906 207.112C898.066 206.872 898.29 206.688 898.578 206.56C898.866 206.432 899.199 206.368 899.578 206.368C900.117 206.368 900.557 206.504 900.898 206.776C901.245 207.043 901.437 207.411 901.474 207.88H900.466C900.45 207.677 900.354 207.504 900.178 207.36C900.002 207.216 899.77 207.144 899.482 207.144C899.221 207.144 899.007 207.211 898.842 207.344C898.677 207.477 898.594 207.669 898.594 207.92C898.594 208.091 898.645 208.232 898.746 208.344C898.853 208.451 898.986 208.536 899.146 208.6C899.306 208.664 899.525 208.733 899.802 208.808C900.17 208.909 900.469 209.011 900.698 209.112C900.933 209.213 901.13 209.371 901.29 209.584C901.455 209.792 901.538 210.072 901.538 210.424C901.538 210.707 901.461 210.973 901.306 211.224C901.157 211.475 900.935 211.677 900.642 211.832C900.354 211.981 900.013 212.056 899.618 212.056ZM929.244 212.056C928.871 212.056 928.535 211.992 928.236 211.864C927.938 211.731 927.703 211.544 927.532 211.304C927.362 211.064 927.276 210.784 927.276 210.464H928.252C928.274 210.704 928.367 210.901 928.532 211.056C928.703 211.211 928.94 211.288 929.244 211.288C929.559 211.288 929.804 211.213 929.98 211.064C930.156 210.909 930.244 210.712 930.244 210.472C930.244 210.285 930.188 210.133 930.076 210.016C929.97 209.899 929.834 209.808 929.668 209.744C929.508 209.68 929.284 209.611 928.996 209.536C928.634 209.44 928.338 209.344 928.108 209.248C927.884 209.147 927.692 208.992 927.532 208.784C927.372 208.576 927.292 208.299 927.292 207.952C927.292 207.632 927.372 207.352 927.532 207.112C927.692 206.872 927.916 206.688 928.204 206.56C928.492 206.432 928.826 206.368 929.204 206.368C929.743 206.368 930.183 206.504 930.524 206.776C930.871 207.043 931.063 207.411 931.1 207.88H930.092C930.076 207.677 929.98 207.504 929.804 207.36C929.628 207.216 929.396 207.144 929.108 207.144C928.847 207.144 928.634 207.211 928.468 207.344C928.303 207.477 928.22 207.669 928.22 207.92C928.22 208.091 928.271 208.232 928.372 208.344C928.479 208.451 928.612 208.536 928.772 208.6C928.932 208.664 929.151 208.733 929.428 208.808C929.796 208.909 930.095 209.011 930.324 209.112C930.559 209.213 930.756 209.371 930.916 209.584C931.082 209.792 931.164 210.072 931.164 210.424C931.164 210.707 931.087 210.973 930.932 211.224C930.783 211.475 930.562 211.677 930.268 211.832C929.98 211.981 929.639 212.056 929.244 212.056Z" fill="#CCCCCC"/>
<path d="M719.464 127.952C718.909 127.675 718.632 127.237 718.632 126.64C718.632 126.352 718.704 126.088 718.848 125.848C718.992 125.608 719.208 125.419 719.496 125.28C719.784 125.136 720.136 125.064 720.552 125.064C720.963 125.064 721.312 125.136 721.6 125.28C721.893 125.419 722.112 125.608 722.256 125.848C722.4 126.088 722.472 126.352 722.472 126.64C722.472 126.939 722.395 127.203 722.24 127.432C722.091 127.656 721.891 127.829 721.64 127.952C721.944 128.064 722.184 128.248 722.36 128.504C722.536 128.755 722.624 129.051 722.624 129.392C722.624 129.739 722.536 130.045 722.36 130.312C722.184 130.579 721.939 130.784 721.624 130.928C721.309 131.072 720.952 131.144 720.552 131.144C720.152 131.144 719.795 131.072 719.48 130.928C719.171 130.784 718.928 130.579 718.752 130.312C718.576 130.045 718.488 129.739 718.488 129.392C718.488 129.045 718.576 128.747 718.752 128.496C718.928 128.245 719.165 128.064 719.464 127.952ZM721.6 126.752C721.6 126.453 721.507 126.224 721.32 126.064C721.133 125.904 720.877 125.824 720.552 125.824C720.232 125.824 719.979 125.904 719.792 126.064C719.605 126.224 719.512 126.456 719.512 126.76C719.512 127.027 719.608 127.245 719.8 127.416C719.997 127.581 720.248 127.664 720.552 127.664C720.856 127.664 721.107 127.579 721.304 127.408C721.501 127.237 721.6 127.019 721.6 126.752ZM720.552 128.352C720.2 128.352 719.912 128.44 719.688 128.616C719.469 128.787 719.36 129.035 719.36 129.36C719.36 129.664 719.467 129.912 719.68 130.104C719.893 130.291 720.184 130.384 720.552 130.384C720.915 130.384 721.2 130.288 721.408 130.096C721.621 129.904 721.728 129.659 721.728 129.36C721.728 129.04 721.619 128.792 721.4 128.616C721.187 128.44 720.904 128.352 720.552 128.352ZM723.822 128.008C723.822 127.085 723.976 126.365 724.286 125.848C724.6 125.325 725.139 125.064 725.902 125.064C726.664 125.064 727.2 125.325 727.51 125.848C727.824 126.365 727.982 127.085 727.982 128.008C727.982 128.941 727.824 129.672 727.51 130.2C727.2 130.723 726.664 130.984 725.902 130.984C725.139 130.984 724.6 130.723 724.286 130.2C723.976 129.672 723.822 128.941 723.822 128.008ZM727.086 128.008C727.086 127.576 727.056 127.211 726.998 126.912C726.944 126.613 726.832 126.371 726.662 126.184C726.491 125.992 726.238 125.896 725.902 125.896C725.566 125.896 725.312 125.992 725.142 126.184C724.971 126.371 724.856 126.613 724.798 126.912C724.744 127.211 724.718 127.576 724.718 128.008C724.718 128.456 724.744 128.832 724.798 129.136C724.851 129.44 724.963 129.685 725.134 129.872C725.31 130.059 725.566 130.152 725.902 130.152C726.238 130.152 726.491 130.059 726.662 129.872C726.838 129.685 726.952 129.44 727.006 129.136C727.059 128.832 727.086 128.456 727.086 128.008ZM731.051 128.8L733.083 131H731.851L730.219 129.104V131H729.307V125.08H730.219V128.52L731.819 126.592H733.083L731.051 128.8ZM721.616 147.52C721.557 147.275 721.451 147.091 721.296 146.968C721.141 146.845 720.925 146.784 720.648 146.784C720.227 146.784 719.912 146.947 719.704 147.272C719.496 147.592 719.387 148.125 719.376 148.872C719.515 148.637 719.717 148.456 719.984 148.328C720.251 148.2 720.539 148.136 720.848 148.136C721.2 148.136 721.509 148.213 721.776 148.368C722.048 148.517 722.259 148.736 722.408 149.024C722.563 149.312 722.64 149.656 722.64 150.056C722.64 150.429 722.565 150.763 722.416 151.056C722.272 151.349 722.056 151.581 721.768 151.752C721.48 151.917 721.133 152 720.728 152C720.179 152 719.747 151.88 719.432 151.64C719.123 151.395 718.904 151.051 718.776 150.608C718.653 150.165 718.592 149.613 718.592 148.952C718.592 147 719.28 146.024 720.656 146.024C721.189 146.024 721.608 146.168 721.912 146.456C722.221 146.744 722.403 147.099 722.456 147.52H721.616ZM720.648 148.904C720.323 148.904 720.045 149.003 719.816 149.2C719.592 149.392 719.48 149.672 719.48 150.04C719.48 150.408 719.584 150.701 719.792 150.92C720.005 151.133 720.301 151.24 720.68 151.24C721.016 151.24 721.28 151.136 721.472 150.928C721.669 150.72 721.768 150.443 721.768 150.096C721.768 149.733 721.672 149.445 721.48 149.232C721.293 149.013 721.016 148.904 720.648 148.904ZM723.853 149.008C723.853 148.085 724.007 147.365 724.317 146.848C724.631 146.325 725.17 146.064 725.933 146.064C726.695 146.064 727.231 146.325 727.541 146.848C727.855 147.365 728.013 148.085 728.013 149.008C728.013 149.941 727.855 150.672 727.541 151.2C727.231 151.723 726.695 151.984 725.933 151.984C725.17 151.984 724.631 151.723 724.317 151.2C724.007 150.672 723.853 149.941 723.853 149.008ZM727.117 149.008C727.117 148.576 727.087 148.211 727.029 147.912C726.975 147.613 726.863 147.371 726.693 147.184C726.522 146.992 726.269 146.896 725.933 146.896C725.597 146.896 725.343 146.992 725.173 147.184C725.002 147.371 724.887 147.613 724.829 147.912C724.775 148.211 724.749 148.576 724.749 149.008C724.749 149.456 724.775 149.832 724.829 150.136C724.882 150.44 724.994 150.685 725.165 150.872C725.341 151.059 725.597 151.152 725.933 151.152C726.269 151.152 726.522 151.059 726.693 150.872C726.869 150.685 726.983 150.44 727.037 150.136C727.09 149.832 727.117 149.456 727.117 149.008ZM731.082 149.8L733.114 152H731.882L730.25 150.104V152H729.338V146.08H730.25V149.52L731.85 147.592H733.114L731.082 149.8ZM718.368 171.784V171.096L721.056 167.24H722.16V170.992H722.904V171.784H722.16V173H721.264V171.784H718.368ZM721.304 168.168L719.416 170.992H721.304V168.168ZM723.9 170.008C723.9 169.085 724.054 168.365 724.364 167.848C724.678 167.325 725.217 167.064 725.98 167.064C726.742 167.064 727.278 167.325 727.588 167.848C727.902 168.365 728.06 169.085 728.06 170.008C728.06 170.941 727.902 171.672 727.588 172.2C727.278 172.723 726.742 172.984 725.98 172.984C725.217 172.984 724.678 172.723 724.364 172.2C724.054 171.672 723.9 170.941 723.9 170.008ZM727.164 170.008C727.164 169.576 727.134 169.211 727.076 168.912C727.022 168.613 726.91 168.371 726.74 168.184C726.569 167.992 726.316 167.896 725.98 167.896C725.644 167.896 725.39 167.992 725.22 168.184C725.049 168.371 724.934 168.613 724.876 168.912C724.822 169.211 724.796 169.576 724.796 170.008C724.796 170.456 724.822 170.832 724.876 171.136C724.929 171.44 725.041 171.685 725.212 171.872C725.388 172.059 725.644 172.152 725.98 172.152C726.316 172.152 726.569 172.059 726.74 171.872C726.916 171.685 727.03 171.44 727.084 171.136C727.137 170.832 727.164 170.456 727.164 170.008ZM731.129 170.8L733.161 173H731.929L730.297 171.104V173H729.385V167.08H730.297V170.52L731.897 168.592H733.161L731.129 170.8ZM718.984 192.76C719.496 192.317 719.899 191.955 720.192 191.672C720.491 191.384 720.739 191.085 720.936 190.776C721.133 190.467 721.232 190.157 721.232 189.848C721.232 189.528 721.155 189.277 721 189.096C720.851 188.915 720.613 188.824 720.288 188.824C719.973 188.824 719.728 188.925 719.552 189.128C719.381 189.325 719.291 189.592 719.28 189.928H718.4C718.416 189.32 718.597 188.856 718.944 188.536C719.296 188.211 719.741 188.048 720.28 188.048C720.861 188.048 721.315 188.208 721.64 188.528C721.971 188.848 722.136 189.275 722.136 189.808C722.136 190.192 722.037 190.563 721.84 190.92C721.648 191.272 721.416 191.589 721.144 191.872C720.877 192.149 720.536 192.472 720.12 192.84L719.76 193.16H722.296V193.92H718.408V193.256L718.984 192.76ZM723.337 191.008C723.337 190.085 723.492 189.365 723.801 188.848C724.116 188.325 724.655 188.064 725.417 188.064C726.18 188.064 726.716 188.325 727.025 188.848C727.34 189.365 727.497 190.085 727.497 191.008C727.497 191.941 727.34 192.672 727.025 193.2C726.716 193.723 726.18 193.984 725.417 193.984C724.655 193.984 724.116 193.723 723.801 193.2C723.492 192.672 723.337 191.941 723.337 191.008ZM726.601 191.008C726.601 190.576 726.572 190.211 726.513 189.912C726.46 189.613 726.348 189.371 726.177 189.184C726.007 188.992 725.753 188.896 725.417 188.896C725.081 188.896 724.828 188.992 724.657 189.184C724.487 189.371 724.372 189.613 724.313 189.912C724.26 190.211 724.233 190.576 724.233 191.008C724.233 191.456 724.26 191.832 724.313 192.136C724.367 192.44 724.479 192.685 724.649 192.872C724.825 193.059 725.081 193.152 725.417 193.152C725.753 193.152 726.007 193.059 726.177 192.872C726.353 192.685 726.468 192.44 726.521 192.136C726.575 191.832 726.601 191.456 726.601 191.008ZM730.566 191.8L732.598 194H731.366L729.734 192.104V194H728.822V188.08H729.734V191.52L731.334 189.592H732.598L730.566 191.8Z" fill="#CCCCCC"/>
<path d="M756 186C763 166.333 788.6 131.8 835 151C881.4 170.2 911 140.667 920 123.5" stroke="url(#paint16_linear_1_297)" stroke-linecap="round"/>
<defs>
<linearGradient id="paint0_linear_1_297" x1="232" y1="126" x2="232" y2="221" gradientUnits="userSpaceOnUse">
<stop stop-color="#1D371C"/>
<stop offset="1" stop-color="#7AA878"/>
</linearGradient>
<linearGradient id="paint1_linear_1_297" x1="264" y1="116" x2="264" y2="221" gradientUnits="userSpaceOnUse">
<stop stop-color="#1D371C"/>
<stop offset="1" stop-color="#7AA878"/>
</linearGradient>
<linearGradient id="paint2_linear_1_297" x1="200" y1="136" x2="200" y2="221" gradientUnits="userSpaceOnUse">
<stop stop-color="#1D371C"/>
<stop offset="1" stop-color="#7AA878"/>
</linearGradient>
<linearGradient id="paint3_linear_1_297" x1="168" y1="146" x2="168" y2="221" gradientUnits="userSpaceOnUse">
<stop stop-color="#1D371C"/>
<stop offset="1" stop-color="#7AA878"/>
</linearGradient>
<linearGradient id="paint4_linear_1_297" x1="136" y1="156" x2="136" y2="221" gradientUnits="userSpaceOnUse">
<stop stop-color="#1D371C"/>
<stop offset="1" stop-color="#7AA878"/>
</linearGradient>
<linearGradient id="paint5_linear_1_297" x1="104" y1="166" x2="104" y2="221" gradientUnits="userSpaceOnUse">
<stop stop-color="#1D371C"/>
<stop offset="1" stop-color="#7AA878"/>
</linearGradient>
<linearGradient id="paint6_linear_1_297" x1="72" y1="151" x2="72" y2="221" gradientUnits="userSpaceOnUse">
<stop stop-color="#1D371C"/>
<stop offset="1" stop-color="#7AA878"/>
</linearGradient>
<linearGradient id="paint7_linear_1_297" x1="40" y1="161" x2="40" y2="221" gradientUnits="userSpaceOnUse">
<stop stop-color="#1D371C"/>
<stop offset="1" stop-color="#7AA878"/>
</linearGradient>
<linearGradient id="paint8_linear_1_297" x1="584" y1="126" x2="584" y2="221" gradientUnits="userSpaceOnUse">
<stop stop-color="#1D371C"/>
<stop offset="1" stop-color="#778976"/>
</linearGradient>
<linearGradient id="paint9_linear_1_297" x1="616" y1="151" x2="616" y2="221" gradientUnits="userSpaceOnUse">
<stop stop-color="#1D371C"/>
<stop offset="1" stop-color="#778976"/>
</linearGradient>
<linearGradient id="paint10_linear_1_297" x1="552" y1="136" x2="552" y2="221" gradientUnits="userSpaceOnUse">
<stop stop-color="#1D371C"/>
<stop offset="1" stop-color="#778976"/>
</linearGradient>
<linearGradient id="paint11_linear_1_297" x1="520" y1="146" x2="520" y2="221" gradientUnits="userSpaceOnUse">
<stop stop-color="#1D371C"/>
<stop offset="1" stop-color="#778976"/>
</linearGradient>
<linearGradient id="paint12_linear_1_297" x1="488" y1="136" x2="488" y2="221" gradientUnits="userSpaceOnUse">
<stop stop-color="#1D371C"/>
<stop offset="1" stop-color="#778976"/>
</linearGradient>
<linearGradient id="paint13_linear_1_297" x1="456" y1="166" x2="456" y2="221" gradientUnits="userSpaceOnUse">
<stop stop-color="#1D371C"/>
<stop offset="1" stop-color="#778976"/>
</linearGradient>
<linearGradient id="paint14_linear_1_297" x1="424" y1="151" x2="424" y2="221" gradientUnits="userSpaceOnUse">
<stop stop-color="#1D371C"/>
<stop offset="1" stop-color="#778976"/>
</linearGradient>
<linearGradient id="paint15_linear_1_297" x1="392" y1="141" x2="392" y2="221" gradientUnits="userSpaceOnUse">
<stop stop-color="#1D371C"/>
<stop offset="1" stop-color="#778976"/>
</linearGradient>
<linearGradient id="paint16_linear_1_297" x1="756" y1="189" x2="924.5" y2="106.5" gradientUnits="userSpaceOnUse">
<stop stop-color="#1D371C"/>
<stop offset="1" stop-color="#1D371C"/>
</linearGradient>
</defs>
</svg>
