<svg width="396" height="377" viewBox="0 0 396 377" fill="none" xmlns="http://www.w3.org/2000/svg">
<path d="M202 150V171M202 150L196.166 154.667M202 150L207.833 154.667M185.746 143.273C183.539 143.828 181.611 145.17 180.324 147.047C179.037 148.924 178.479 151.206 178.756 153.464C179.033 155.723 180.125 157.803 181.827 159.313C183.529 160.824 185.724 161.661 188 161.667H190.333" stroke="#042537" stroke-width="3" stroke-linecap="round" stroke-linejoin="round"/>
<path d="M210.937 138.655C210.139 135.497 208.171 132.761 205.43 131C202.69 129.24 199.383 128.587 196.179 129.175C192.975 129.762 190.115 131.546 188.178 134.164C186.24 136.783 185.371 140.04 185.746 143.275C185.746 143.275 186.103 145.333 186.833 146.5" stroke="#042537" stroke-width="3" stroke-linecap="round" stroke-linejoin="round"/>
<path d="M213.666 161.667C215.314 161.666 216.942 161.316 218.445 160.64C219.947 159.964 221.289 158.977 222.383 157.745C223.477 156.513 224.297 155.064 224.79 153.492C225.283 151.92 225.438 150.261 225.244 148.626C225.05 146.99 224.511 145.413 223.664 144C222.817 142.587 221.68 141.37 220.329 140.428C218.977 139.486 217.441 138.841 215.822 138.536C214.203 138.23 212.538 138.271 210.936 138.655L207.833 139.5" stroke="#042537" stroke-width="3" stroke-linecap="round" stroke-linejoin="round"/>
<path d="M91.88 186.06C93.4 186.06 94.7133 186.347 95.82 186.92C96.94 187.48 97.7933 188.287 98.38 189.34C98.98 190.393 99.28 191.633 99.28 193.06C99.28 194.487 98.98 195.727 98.38 196.78C97.7933 197.82 96.94 198.62 95.82 199.18C94.7133 199.727 93.4 200 91.88 200H87.54V186.06H91.88ZM91.88 198.5C93.68 198.5 95.0533 198.027 96 197.08C96.9467 196.12 97.42 194.78 97.42 193.06C97.42 191.327 96.94 189.973 95.98 189C95.0333 188.027 93.6667 187.54 91.88 187.54H89.36V198.5H91.88ZM103.501 190.82C103.821 190.193 104.274 189.707 104.861 189.36C105.461 189.013 106.187 188.84 107.041 188.84V190.72H106.561C104.521 190.72 103.501 191.827 103.501 194.04V200H101.681V189.04H103.501V190.82ZM108.462 194.48C108.462 193.36 108.688 192.38 109.142 191.54C109.595 190.687 110.215 190.027 111.002 189.56C111.802 189.093 112.688 188.86 113.662 188.86C114.622 188.86 115.455 189.067 116.162 189.48C116.868 189.893 117.395 190.413 117.742 191.04V189.04H119.582V200H117.742V197.96C117.382 198.6 116.842 199.133 116.122 199.56C115.415 199.973 114.588 200.18 113.642 200.18C112.668 200.18 111.788 199.94 111.002 199.46C110.215 198.98 109.595 198.307 109.142 197.44C108.688 196.573 108.462 195.587 108.462 194.48ZM117.742 194.5C117.742 193.673 117.575 192.953 117.242 192.34C116.908 191.727 116.455 191.26 115.882 190.94C115.322 190.607 114.702 190.44 114.022 190.44C113.342 190.44 112.722 190.6 112.162 190.92C111.602 191.24 111.155 191.707 110.822 192.32C110.488 192.933 110.322 193.653 110.322 194.48C110.322 195.32 110.488 196.053 110.822 196.68C111.155 197.293 111.602 197.767 112.162 198.1C112.722 198.42 113.342 198.58 114.022 198.58C114.702 198.58 115.322 198.42 115.882 198.1C116.455 197.767 116.908 197.293 117.242 196.68C117.575 196.053 117.742 195.327 117.742 194.5ZM127.177 188.86C128.124 188.86 128.951 189.067 129.657 189.48C130.377 189.893 130.911 190.413 131.257 191.04V189.04H133.097V200.24C133.097 201.24 132.884 202.127 132.457 202.9C132.031 203.687 131.417 204.3 130.617 204.74C129.831 205.18 128.911 205.4 127.857 205.4C126.417 205.4 125.217 205.06 124.257 204.38C123.297 203.7 122.731 202.773 122.557 201.6H124.357C124.557 202.267 124.971 202.8 125.597 203.2C126.224 203.613 126.977 203.82 127.857 203.82C128.857 203.82 129.671 203.507 130.297 202.88C130.937 202.253 131.257 201.373 131.257 200.24V197.94C130.897 198.58 130.364 199.113 129.657 199.54C128.951 199.967 128.124 200.18 127.177 200.18C126.204 200.18 125.317 199.94 124.517 199.46C123.731 198.98 123.111 198.307 122.657 197.44C122.204 196.573 121.977 195.587 121.977 194.48C121.977 193.36 122.204 192.38 122.657 191.54C123.111 190.687 123.731 190.027 124.517 189.56C125.317 189.093 126.204 188.86 127.177 188.86ZM131.257 194.5C131.257 193.673 131.091 192.953 130.757 192.34C130.424 191.727 129.971 191.26 129.397 190.94C128.837 190.607 128.217 190.44 127.537 190.44C126.857 190.44 126.237 190.6 125.677 190.92C125.117 191.24 124.671 191.707 124.337 192.32C124.004 192.933 123.837 193.653 123.837 194.48C123.837 195.32 124.004 196.053 124.337 196.68C124.671 197.293 125.117 197.767 125.677 198.1C126.237 198.42 126.857 198.58 127.537 198.58C128.217 198.58 128.837 198.42 129.397 198.1C129.971 197.767 130.424 197.293 130.757 196.68C131.091 196.053 131.257 195.327 131.257 194.5ZM152.205 200L150.385 198.16C149.705 198.867 148.978 199.393 148.205 199.74C147.432 200.073 146.558 200.24 145.585 200.24C144.625 200.24 143.772 200.067 143.025 199.72C142.292 199.373 141.718 198.88 141.305 198.24C140.905 197.6 140.705 196.853 140.705 196C140.705 195.027 140.978 194.173 141.525 193.44C142.085 192.693 142.905 192.107 143.985 191.68C143.558 191.173 143.252 190.707 143.065 190.28C142.878 189.853 142.785 189.387 142.785 188.88C142.785 188.293 142.932 187.767 143.225 187.3C143.532 186.82 143.965 186.447 144.525 186.18C145.085 185.913 145.732 185.78 146.465 185.78C147.185 185.78 147.812 185.92 148.345 186.2C148.878 186.48 149.278 186.873 149.545 187.38C149.812 187.873 149.932 188.427 149.905 189.04H148.085C148.098 188.493 147.945 188.067 147.625 187.76C147.305 187.44 146.892 187.28 146.385 187.28C145.852 187.28 145.418 187.433 145.085 187.74C144.765 188.033 144.605 188.413 144.605 188.88C144.605 189.28 144.712 189.667 144.925 190.04C145.152 190.413 145.525 190.873 146.045 191.42L150.205 195.6L150.565 195.04L151.925 192.76H153.885L152.245 195.6C152.018 196 151.752 196.42 151.445 196.86L154.585 200H152.205ZM145.585 198.68C146.305 198.68 146.952 198.54 147.525 198.26C148.112 197.98 148.665 197.547 149.185 196.96L145.085 192.84C143.378 193.493 142.525 194.527 142.525 195.94C142.525 196.727 142.805 197.38 143.365 197.9C143.938 198.42 144.678 198.68 145.585 198.68ZM160.942 194.48C160.942 193.36 161.169 192.38 161.622 191.54C162.075 190.687 162.695 190.027 163.482 189.56C164.282 189.093 165.175 188.86 166.162 188.86C167.015 188.86 167.809 189.06 168.542 189.46C169.275 189.847 169.835 190.36 170.222 191V185.2H172.062V200H170.222V197.94C169.862 198.593 169.329 199.133 168.622 199.56C167.915 199.973 167.089 200.18 166.142 200.18C165.169 200.18 164.282 199.94 163.482 199.46C162.695 198.98 162.075 198.307 161.622 197.44C161.169 196.573 160.942 195.587 160.942 194.48ZM170.222 194.5C170.222 193.673 170.055 192.953 169.722 192.34C169.389 191.727 168.935 191.26 168.362 190.94C167.802 190.607 167.182 190.44 166.502 190.44C165.822 190.44 165.202 190.6 164.642 190.92C164.082 191.24 163.635 191.707 163.302 192.32C162.969 192.933 162.802 193.653 162.802 194.48C162.802 195.32 162.969 196.053 163.302 196.68C163.635 197.293 164.082 197.767 164.642 198.1C165.202 198.42 165.822 198.58 166.502 198.58C167.182 198.58 167.802 198.42 168.362 198.1C168.935 197.767 169.389 197.293 169.722 196.68C170.055 196.053 170.222 195.327 170.222 194.5ZM176.958 190.82C177.278 190.193 177.731 189.707 178.318 189.36C178.918 189.013 179.644 188.84 180.498 188.84V190.72H180.018C177.978 190.72 176.958 191.827 176.958 194.04V200H175.138V189.04H176.958V190.82ZM187.379 200.18C186.352 200.18 185.419 199.947 184.579 199.48C183.752 199.013 183.099 198.353 182.619 197.5C182.152 196.633 181.919 195.633 181.919 194.5C181.919 193.38 182.159 192.393 182.639 191.54C183.132 190.673 183.799 190.013 184.639 189.56C185.479 189.093 186.419 188.86 187.459 188.86C188.499 188.86 189.439 189.093 190.279 189.56C191.119 190.013 191.779 190.667 192.259 191.52C192.752 192.373 192.999 193.367 192.999 194.5C192.999 195.633 192.745 196.633 192.239 197.5C191.745 198.353 191.072 199.013 190.219 199.48C189.365 199.947 188.419 200.18 187.379 200.18ZM187.379 198.58C188.032 198.58 188.645 198.427 189.219 198.12C189.792 197.813 190.252 197.353 190.599 196.74C190.959 196.127 191.139 195.38 191.139 194.5C191.139 193.62 190.965 192.873 190.619 192.26C190.272 191.647 189.819 191.193 189.259 190.9C188.699 190.593 188.092 190.44 187.439 190.44C186.772 190.44 186.159 190.593 185.599 190.9C185.052 191.193 184.612 191.647 184.279 192.26C183.945 192.873 183.779 193.62 183.779 194.5C183.779 195.393 183.939 196.147 184.259 196.76C184.592 197.373 185.032 197.833 185.579 198.14C186.125 198.433 186.725 198.58 187.379 198.58ZM197.212 191.06C197.572 190.433 198.105 189.913 198.812 189.5C199.532 189.073 200.365 188.86 201.312 188.86C202.285 188.86 203.165 189.093 203.952 189.56C204.752 190.027 205.378 190.687 205.832 191.54C206.285 192.38 206.512 193.36 206.512 194.48C206.512 195.587 206.285 196.573 205.832 197.44C205.378 198.307 204.752 198.98 203.952 199.46C203.165 199.94 202.285 200.18 201.312 200.18C200.378 200.18 199.552 199.973 198.832 199.56C198.125 199.133 197.585 198.607 197.212 197.98V205.2H195.392V189.04H197.212V191.06ZM204.652 194.48C204.652 193.653 204.485 192.933 204.152 192.32C203.818 191.707 203.365 191.24 202.792 190.92C202.232 190.6 201.612 190.44 200.932 190.44C200.265 190.44 199.645 190.607 199.072 190.94C198.512 191.26 198.058 191.733 197.712 192.36C197.378 192.973 197.212 193.687 197.212 194.5C197.212 195.327 197.378 196.053 197.712 196.68C198.058 197.293 198.512 197.767 199.072 198.1C199.645 198.42 200.265 198.58 200.932 198.58C201.612 198.58 202.232 198.42 202.792 198.1C203.365 197.767 203.818 197.293 204.152 196.68C204.485 196.053 204.652 195.32 204.652 194.48ZM216.459 190.54V197C216.459 197.533 216.573 197.913 216.799 198.14C217.026 198.353 217.419 198.46 217.979 198.46H219.319V200H217.679C216.666 200 215.906 199.767 215.399 199.3C214.893 198.833 214.639 198.067 214.639 197V190.54H213.219V189.04H214.639V186.28H216.459V189.04H219.319V190.54H216.459ZM226.304 200.18C225.278 200.18 224.344 199.947 223.504 199.48C222.678 199.013 222.024 198.353 221.544 197.5C221.078 196.633 220.844 195.633 220.844 194.5C220.844 193.38 221.084 192.393 221.564 191.54C222.058 190.673 222.724 190.013 223.564 189.56C224.404 189.093 225.344 188.86 226.384 188.86C227.424 188.86 228.364 189.093 229.204 189.56C230.044 190.013 230.704 190.667 231.184 191.52C231.678 192.373 231.924 193.367 231.924 194.5C231.924 195.633 231.671 196.633 231.164 197.5C230.671 198.353 229.998 199.013 229.144 199.48C228.291 199.947 227.344 200.18 226.304 200.18ZM226.304 198.58C226.958 198.58 227.571 198.427 228.144 198.12C228.718 197.813 229.178 197.353 229.524 196.74C229.884 196.127 230.064 195.38 230.064 194.5C230.064 193.62 229.891 192.873 229.544 192.26C229.198 191.647 228.744 191.193 228.184 190.9C227.624 190.593 227.018 190.44 226.364 190.44C225.698 190.44 225.084 190.593 224.524 190.9C223.978 191.193 223.538 191.647 223.204 192.26C222.871 192.873 222.704 193.62 222.704 194.5C222.704 195.393 222.864 196.147 223.184 196.76C223.518 197.373 223.958 197.833 224.504 198.14C225.051 198.433 225.651 198.58 226.304 198.58ZM249.369 189.04V200H247.549V198.38C247.203 198.94 246.716 199.38 246.089 199.7C245.476 200.007 244.796 200.16 244.049 200.16C243.196 200.16 242.429 199.987 241.749 199.64C241.069 199.28 240.529 198.747 240.129 198.04C239.743 197.333 239.549 196.473 239.549 195.46V189.04H241.349V195.22C241.349 196.3 241.623 197.133 242.169 197.72C242.716 198.293 243.463 198.58 244.409 198.58C245.383 198.58 246.149 198.28 246.709 197.68C247.269 197.08 247.549 196.207 247.549 195.06V189.04H249.369ZM254.262 191.06C254.622 190.433 255.156 189.913 255.862 189.5C256.582 189.073 257.416 188.86 258.362 188.86C259.336 188.86 260.216 189.093 261.002 189.56C261.802 190.027 262.429 190.687 262.882 191.54C263.336 192.38 263.562 193.36 263.562 194.48C263.562 195.587 263.336 196.573 262.882 197.44C262.429 198.307 261.802 198.98 261.002 199.46C260.216 199.94 259.336 200.18 258.362 200.18C257.429 200.18 256.602 199.973 255.882 199.56C255.176 199.133 254.636 198.607 254.262 197.98V205.2H252.442V189.04H254.262V191.06ZM261.702 194.48C261.702 193.653 261.536 192.933 261.202 192.32C260.869 191.707 260.416 191.24 259.842 190.92C259.282 190.6 258.662 190.44 257.982 190.44C257.316 190.44 256.696 190.607 256.122 190.94C255.562 191.26 255.109 191.733 254.762 192.36C254.429 192.973 254.262 193.687 254.262 194.5C254.262 195.327 254.429 196.053 254.762 196.68C255.109 197.293 255.562 197.767 256.122 198.1C256.696 198.42 257.316 198.58 257.982 198.58C258.662 198.58 259.282 198.42 259.842 198.1C260.416 197.767 260.869 197.293 261.202 196.68C261.536 196.053 261.702 195.32 261.702 194.48ZM267.778 185.2V200H265.958V185.2H267.778ZM275.66 200.18C274.633 200.18 273.7 199.947 272.86 199.48C272.033 199.013 271.38 198.353 270.9 197.5C270.433 196.633 270.2 195.633 270.2 194.5C270.2 193.38 270.44 192.393 270.92 191.54C271.413 190.673 272.08 190.013 272.92 189.56C273.76 189.093 274.7 188.86 275.74 188.86C276.78 188.86 277.72 189.093 278.56 189.56C279.4 190.013 280.06 190.667 280.54 191.52C281.033 192.373 281.28 193.367 281.28 194.5C281.28 195.633 281.027 196.633 280.52 197.5C280.027 198.353 279.353 199.013 278.5 199.48C277.647 199.947 276.7 200.18 275.66 200.18ZM275.66 198.58C276.313 198.58 276.927 198.427 277.5 198.12C278.073 197.813 278.533 197.353 278.88 196.74C279.24 196.127 279.42 195.38 279.42 194.5C279.42 193.62 279.247 192.873 278.9 192.26C278.553 191.647 278.1 191.193 277.54 190.9C276.98 190.593 276.373 190.44 275.72 190.44C275.053 190.44 274.44 190.593 273.88 190.9C273.333 191.193 272.893 191.647 272.56 192.26C272.227 192.873 272.06 193.62 272.06 194.5C272.06 195.393 272.22 196.147 272.54 196.76C272.873 197.373 273.313 197.833 273.86 198.14C274.407 198.433 275.007 198.58 275.66 198.58ZM282.993 194.48C282.993 193.36 283.219 192.38 283.673 191.54C284.126 190.687 284.746 190.027 285.533 189.56C286.333 189.093 287.219 188.86 288.193 188.86C289.153 188.86 289.986 189.067 290.693 189.48C291.399 189.893 291.926 190.413 292.273 191.04V189.04H294.113V200H292.273V197.96C291.913 198.6 291.373 199.133 290.653 199.56C289.946 199.973 289.119 200.18 288.173 200.18C287.199 200.18 286.319 199.94 285.533 199.46C284.746 198.98 284.126 198.307 283.673 197.44C283.219 196.573 282.993 195.587 282.993 194.48ZM292.273 194.5C292.273 193.673 292.106 192.953 291.773 192.34C291.439 191.727 290.986 191.26 290.413 190.94C289.853 190.607 289.233 190.44 288.553 190.44C287.873 190.44 287.253 190.6 286.693 190.92C286.133 191.24 285.686 191.707 285.353 192.32C285.019 192.933 284.853 193.653 284.853 194.48C284.853 195.32 285.019 196.053 285.353 196.68C285.686 197.293 286.133 197.767 286.693 198.1C287.253 198.42 287.873 198.58 288.553 198.58C289.233 198.58 289.853 198.42 290.413 198.1C290.986 197.767 291.439 197.293 291.773 196.68C292.106 196.053 292.273 195.327 292.273 194.5ZM296.508 194.48C296.508 193.36 296.735 192.38 297.188 191.54C297.642 190.687 298.262 190.027 299.048 189.56C299.848 189.093 300.742 188.86 301.728 188.86C302.582 188.86 303.375 189.06 304.108 189.46C304.842 189.847 305.402 190.36 305.788 191V185.2H307.628V200H305.788V197.94C305.428 198.593 304.895 199.133 304.188 199.56C303.482 199.973 302.655 200.18 301.708 200.18C300.735 200.18 299.848 199.94 299.048 199.46C298.262 198.98 297.642 198.307 297.188 197.44C296.735 196.573 296.508 195.587 296.508 194.48ZM305.788 194.5C305.788 193.673 305.622 192.953 305.288 192.34C304.955 191.727 304.502 191.26 303.928 190.94C303.368 190.607 302.748 190.44 302.068 190.44C301.388 190.44 300.768 190.6 300.208 190.92C299.648 191.24 299.202 191.707 298.868 192.32C298.535 192.933 298.368 193.653 298.368 194.48C298.368 195.32 298.535 196.053 298.868 196.68C299.202 197.293 299.648 197.767 300.208 198.1C300.768 198.42 301.388 198.58 302.068 198.58C302.748 198.58 303.368 198.42 303.928 198.1C304.502 197.767 304.955 197.293 305.288 196.68C305.622 196.053 305.788 195.327 305.788 194.5Z" fill="black"/>
<path d="M169.74 225.135C168.97 225.135 168.27 224.96 167.64 224.61C167.02 224.26 166.53 223.765 166.17 223.125C165.82 222.475 165.645 221.725 165.645 220.875C165.645 220.035 165.825 219.295 166.185 218.655C166.555 218.005 167.055 217.51 167.685 217.17C168.315 216.82 169.02 216.645 169.8 216.645C170.58 216.645 171.285 216.82 171.915 217.17C172.545 217.51 173.04 218 173.4 218.64C173.77 219.28 173.955 220.025 173.955 220.875C173.955 221.725 173.765 222.475 173.385 223.125C173.015 223.765 172.51 224.26 171.87 224.61C171.23 224.96 170.52 225.135 169.74 225.135ZM169.74 223.935C170.23 223.935 170.69 223.82 171.12 223.59C171.55 223.36 171.895 223.015 172.155 222.555C172.425 222.095 172.56 221.535 172.56 220.875C172.56 220.215 172.43 219.655 172.17 219.195C171.91 218.735 171.57 218.395 171.15 218.175C170.73 217.945 170.275 217.83 169.785 217.83C169.285 217.83 168.825 217.945 168.405 218.175C167.995 218.395 167.665 218.735 167.415 219.195C167.165 219.655 167.04 220.215 167.04 220.875C167.04 221.545 167.16 222.11 167.4 222.57C167.65 223.03 167.98 223.375 168.39 223.605C168.8 223.825 169.25 223.935 169.74 223.935ZM177.115 218.115C177.355 217.645 177.695 217.28 178.135 217.02C178.585 216.76 179.13 216.63 179.77 216.63V218.04H179.41C177.88 218.04 177.115 218.87 177.115 220.53V225H175.75V216.78H177.115V218.115ZM186.709 218.31C186.989 217.82 187.399 217.42 187.939 217.11C188.479 216.8 189.094 216.645 189.784 216.645C190.524 216.645 191.189 216.82 191.779 217.17C192.369 217.52 192.834 218.015 193.174 218.655C193.514 219.285 193.684 220.02 193.684 220.86C193.684 221.69 193.514 222.43 193.174 223.08C192.834 223.73 192.364 224.235 191.764 224.595C191.174 224.955 190.514 225.135 189.784 225.135C189.074 225.135 188.449 224.98 187.909 224.67C187.379 224.36 186.979 223.965 186.709 223.485V225H185.344V213.9H186.709V218.31ZM192.289 220.86C192.289 220.24 192.164 219.7 191.914 219.24C191.664 218.78 191.324 218.43 190.894 218.19C190.474 217.95 190.009 217.83 189.499 217.83C188.999 217.83 188.534 217.955 188.104 218.205C187.684 218.445 187.344 218.8 187.084 219.27C186.834 219.73 186.709 220.265 186.709 220.875C186.709 221.495 186.834 222.04 187.084 222.51C187.344 222.97 187.684 223.325 188.104 223.575C188.534 223.815 188.999 223.935 189.499 223.935C190.009 223.935 190.474 223.815 190.894 223.575C191.324 223.325 191.664 222.97 191.914 222.51C192.164 222.04 192.289 221.49 192.289 220.86ZM196.846 218.115C197.086 217.645 197.426 217.28 197.866 217.02C198.316 216.76 198.861 216.63 199.501 216.63V218.04H199.141C197.611 218.04 196.846 218.87 196.846 220.53V225H195.481V216.78H196.846V218.115ZM204.662 225.135C203.892 225.135 203.192 224.96 202.562 224.61C201.942 224.26 201.452 223.765 201.092 223.125C200.742 222.475 200.567 221.725 200.567 220.875C200.567 220.035 200.747 219.295 201.107 218.655C201.477 218.005 201.977 217.51 202.607 217.17C203.237 216.82 203.942 216.645 204.722 216.645C205.502 216.645 206.207 216.82 206.837 217.17C207.467 217.51 207.962 218 208.322 218.64C208.692 219.28 208.877 220.025 208.877 220.875C208.877 221.725 208.687 222.475 208.307 223.125C207.937 223.765 207.432 224.26 206.792 224.61C206.152 224.96 205.442 225.135 204.662 225.135ZM204.662 223.935C205.152 223.935 205.612 223.82 206.042 223.59C206.472 223.36 206.817 223.015 207.077 222.555C207.347 222.095 207.482 221.535 207.482 220.875C207.482 220.215 207.352 219.655 207.092 219.195C206.832 218.735 206.492 218.395 206.072 218.175C205.652 217.945 205.197 217.83 204.707 217.83C204.207 217.83 203.747 217.945 203.327 218.175C202.917 218.395 202.587 218.735 202.337 219.195C202.087 219.655 201.962 220.215 201.962 220.875C201.962 221.545 202.082 222.11 202.322 222.57C202.572 223.03 202.902 223.375 203.312 223.605C203.722 223.825 204.172 223.935 204.662 223.935ZM221.622 216.78L219.057 225H217.647L215.667 218.475L213.687 225H212.277L209.697 216.78H211.092L212.982 223.68L215.022 216.78H216.417L218.412 223.695L220.272 216.78H221.622ZM225.886 225.135C225.256 225.135 224.691 225.03 224.191 224.82C223.691 224.6 223.296 224.3 223.006 223.92C222.716 223.53 222.556 223.085 222.526 222.585H223.936C223.976 222.995 224.166 223.33 224.506 223.59C224.856 223.85 225.311 223.98 225.871 223.98C226.391 223.98 226.801 223.865 227.101 223.635C227.401 223.405 227.551 223.115 227.551 222.765C227.551 222.405 227.391 222.14 227.071 221.97C226.751 221.79 226.256 221.615 225.586 221.445C224.976 221.285 224.476 221.125 224.086 220.965C223.706 220.795 223.376 220.55 223.096 220.23C222.826 219.9 222.691 219.47 222.691 218.94C222.691 218.52 222.816 218.135 223.066 217.785C223.316 217.435 223.671 217.16 224.131 216.96C224.591 216.75 225.116 216.645 225.706 216.645C226.616 216.645 227.351 216.875 227.911 217.335C228.471 217.795 228.771 218.425 228.811 219.225H227.446C227.416 218.795 227.241 218.45 226.921 218.19C226.611 217.93 226.191 217.8 225.661 217.8C225.171 217.8 224.781 217.905 224.491 218.115C224.201 218.325 224.056 218.6 224.056 218.94C224.056 219.21 224.141 219.435 224.311 219.615C224.491 219.785 224.711 219.925 224.971 220.035C225.241 220.135 225.611 220.25 226.081 220.38C226.671 220.54 227.151 220.7 227.521 220.86C227.891 221.01 228.206 221.24 228.466 221.55C228.736 221.86 228.876 222.265 228.886 222.765C228.886 223.215 228.761 223.62 228.511 223.98C228.261 224.34 227.906 224.625 227.446 224.835C226.996 225.035 226.476 225.135 225.886 225.135ZM238.313 220.575C238.313 220.835 238.298 221.11 238.268 221.4H231.698C231.748 222.21 232.023 222.845 232.523 223.305C233.033 223.755 233.648 223.98 234.368 223.98C234.958 223.98 235.448 223.845 235.838 223.575C236.238 223.295 236.518 222.925 236.678 222.465H238.148C237.928 223.255 237.488 223.9 236.828 224.4C236.168 224.89 235.348 225.135 234.368 225.135C233.588 225.135 232.888 224.96 232.268 224.61C231.658 224.26 231.178 223.765 230.828 223.125C230.478 222.475 230.303 221.725 230.303 220.875C230.303 220.025 230.473 219.28 230.813 218.64C231.153 218 231.628 217.51 232.238 217.17C232.858 216.82 233.568 216.645 234.368 216.645C235.148 216.645 235.838 216.815 236.438 217.155C237.038 217.495 237.498 217.965 237.818 218.565C238.148 219.155 238.313 219.825 238.313 220.575ZM236.903 220.29C236.903 219.77 236.788 219.325 236.558 218.955C236.328 218.575 236.013 218.29 235.613 218.1C235.223 217.9 234.788 217.8 234.308 217.8C233.618 217.8 233.028 218.02 232.538 218.46C232.058 218.9 231.783 219.51 231.713 220.29H236.903Z" fill="#737373"/>
<rect x="0.5" y="0.5" width="395" height="376" rx="9.5" stroke="black" stroke-opacity="0.21"/>
</svg>
