<svg width="40" height="40" viewBox="0 0 40 40" fill="none" xmlns="http://www.w3.org/2000/svg">
<path fill-rule="evenodd" clip-rule="evenodd" d="M26.1783 10.595L25 6.66667C25 5.74583 22.51 5 20 5C17.49 5 15 5.74583 15 6.66667L13.8216 10.595C11.0083 11.1967 9.16663 12.1992 9.16663 13.3333C9.16663 15.175 14.0166 16.6667 20 16.6667C25.9833 16.6667 30.8333 15.175 30.8333 13.3333C30.8333 12.1992 28.9916 11.1967 26.1783 10.595ZM23.4433 7.27833C23.2777 7.19707 23.1061 7.12881 22.93 7.07417C22.1858 6.835 21.1125 6.66667 20 6.66667C18.8875 6.66667 17.8141 6.835 17.07 7.075C16.835 7.15 16.6675 7.22167 16.5566 7.27833L15.9475 9.30917C18.6369 9.67274 21.363 9.67274 24.0525 9.30917L23.4433 7.27833ZM24.5366 10.9233C24.2553 10.9654 23.9733 11.0029 23.6908 11.0358C21.2385 11.3213 18.7614 11.3213 16.3091 11.0358C16.0266 11.0029 15.7446 10.9654 15.4633 10.9233L15.1341 12.0183L14.17 12.225C12.85 12.5067 11.8733 12.8617 11.27 13.2083C11.2019 13.2478 11.1352 13.2895 11.07 13.3333C11.42 13.5692 11.9975 13.8417 12.83 14.0975C14.5916 14.6392 17.1266 15 20 15C22.8733 15 25.4083 14.6392 27.17 14.0975C28.0025 13.8417 28.58 13.5692 28.93 13.3325C28.8647 13.2892 28.798 13.2481 28.73 13.2092C28.1266 12.8617 27.15 12.5067 25.83 12.225L24.8658 12.0183L24.5366 10.9233ZM29.2166 13.095C29.219 13.0901 29.2221 13.0856 29.2258 13.0817C29.2258 13.0817 29.2233 13.0867 29.2166 13.095ZM10.7741 13.0817C10.7741 13.0817 10.7783 13.0858 10.7825 13.095C10.779 13.091 10.7762 13.0865 10.7741 13.0817ZM10.7808 13.5775L10.7866 13.5683L10.785 13.5717C10.7833 13.5734 10.7819 13.5754 10.7808 13.5775ZM16.3991 7.37333C16.3955 7.37578 16.3922 7.37857 16.3891 7.38167L16.4025 7.37L16.3991 7.37333ZM23.5975 7.37L23.6116 7.38167C23.6063 7.37861 23.6015 7.37467 23.5975 7.37Z" fill="black"/>
<path d="M13.335 15.9617C13.3688 17.7071 14.0859 19.3696 15.3322 20.592C16.5785 21.8145 18.2546 22.4992 20.0004 22.4992C21.7461 22.4992 23.4222 21.8145 24.6686 20.592C25.9149 19.3696 26.632 17.7071 26.6658 15.9617C26.1081 16.0945 25.5454 16.2057 24.9791 16.295C24.8654 17.537 24.2916 18.6916 23.3704 19.5323C22.4492 20.373 21.2471 20.839 20 20.839C18.7528 20.839 17.5507 20.373 16.6295 19.5323C15.7083 18.6916 15.1345 17.537 15.0208 16.295C14.4548 16.2057 13.8924 16.0945 13.335 15.9617Z" fill="black"/>
<path fill-rule="evenodd" clip-rule="evenodd" d="M11.525 35C11.6167 34.7392 11.6667 34.4583 11.6667 34.1667V33.3333H28.3334V30.8333H25.2917C24.8593 30.9777 24.4205 31.102 23.9767 31.2058C22.6731 31.5111 21.3388 31.6657 20 31.6667C18.385 31.6667 17.005 31.4367 16.0242 31.2058C15.5801 31.102 15.141 30.9777 14.7084 30.8333H12.7642C13.4076 30.4056 13.9437 29.8353 14.3309 29.1667H15V24.5117C16.6577 24.2905 18.3277 24.1753 20 24.1667C25.0067 24.1667 35 25.4858 35 30V35H11.525ZM32.3625 28.5192C33.1267 29.09 33.3334 29.5783 33.3334 30V33.3333H30V30C30 29.779 29.9122 29.567 29.7559 29.4107C29.5997 29.2545 29.3877 29.1667 29.1667 29.1667V27.0658C30.5267 27.4742 31.6242 27.9675 32.3625 28.5192ZM25 26.1942C25.8359 26.3092 26.6809 26.4558 27.5 26.6358V29.1667H25V26.1933V26.1942ZM20 25.8333C21.1131 25.8377 22.2254 25.8933 23.3334 26V29.6417C22.238 29.8786 21.1207 29.9987 20 30C18.8794 29.9987 17.762 29.8786 16.6667 29.6417V26C17.8892 25.885 19.04 25.8333 20 25.8333Z" fill="black"/>
<path d="M6.66667 20.8333C6.66667 20.6123 6.57887 20.4004 6.42259 20.2441C6.26631 20.0878 6.05435 20 5.83333 20C5.61232 20 5.40036 20.0878 5.24408 20.2441C5.0878 20.4004 5 20.6123 5 20.8333V26.6667C5 27.5507 5.35119 28.3986 5.97631 29.0237C6.60143 29.6488 7.44928 30 8.33333 30V34.1667C8.33333 34.3877 8.42113 34.5996 8.57741 34.7559C8.73369 34.9122 8.94565 35 9.16667 35C9.38768 35 9.59964 34.9122 9.75592 34.7559C9.9122 34.5996 10 34.3877 10 34.1667V30C10.8841 30 11.7319 29.6488 12.357 29.0237C12.9821 28.3986 13.3333 27.5507 13.3333 26.6667V20.8333C13.3333 20.6123 13.2455 20.4004 13.0893 20.2441C12.933 20.0878 12.721 20 12.5 20C12.279 20 12.067 20.0878 11.9107 20.2441C11.7545 20.4004 11.6667 20.6123 11.6667 20.8333V26.6667C11.6667 27.1087 11.4911 27.5326 11.1785 27.8452C10.866 28.1577 10.442 28.3333 10 28.3333V20.8333C10 20.6123 9.9122 20.4004 9.75592 20.2441C9.59964 20.0878 9.38768 20 9.16667 20C8.94565 20 8.73369 20.0878 8.57741 20.2441C8.42113 20.4004 8.33333 20.6123 8.33333 20.8333V28.3333C7.89131 28.3333 7.46738 28.1577 7.15482 27.8452C6.84226 27.5326 6.66667 27.1087 6.66667 26.6667V20.8333Z" fill="black"/>
</svg>
