<svg width="59" height="57" viewBox="0 0 59 57" fill="none" xmlns="http://www.w3.org/2000/svg">
<path d="M14.75 4.75C17.8863 4.74917 20.9631 5.57641 23.6481 7.14233C26.3331 8.70826 28.5241 10.9533 29.9842 13.6349C31.4594 11.6211 33.4133 9.97874 35.6818 8.84595C37.9503 7.71315 40.4672 7.12297 43.0208 7.125H51.625V13.0625C51.625 17.1568 49.9414 21.0834 46.9448 23.9785C43.9481 26.8736 39.8837 28.5 35.6458 28.5H31.9583V30.875H44.25V47.5C44.25 48.7598 43.7319 49.968 42.8099 50.8588C41.8878 51.7496 40.6373 52.25 39.3333 52.25H19.6666C18.3626 52.25 17.1121 51.7496 16.19 50.8588C15.268 49.968 14.75 48.7598 14.75 47.5V30.875H27.0416V26.125H22.125C17.561 26.125 13.184 24.3734 9.95683 21.2556C6.72964 18.1379 4.91663 13.9092 4.91663 9.5V4.75H14.75ZM39.3333 35.625H19.6666V47.5H39.3333V35.625ZM46.7083 11.875H43.0208C40.0868 11.875 37.273 13.001 35.1984 15.0053C33.1238 17.0096 31.9583 19.728 31.9583 22.5625V23.75H35.6458C37.0985 23.75 38.5371 23.4736 39.8792 22.9365C41.2214 22.3994 42.4409 21.6121 43.4682 20.6197C44.4954 19.6273 45.3103 18.4491 45.8662 17.1524C46.4221 15.8558 46.7083 14.466 46.7083 13.0625V11.875ZM14.75 9.5H9.83329C9.83329 12.6494 11.1283 15.6699 13.4334 17.8969C15.7386 20.1239 18.865 21.375 22.125 21.375H27.0416C27.0416 18.2256 25.7466 15.2051 23.4415 12.9781C21.1363 10.7511 18.0099 9.5 14.75 9.5Z" fill="#1D371C"/>
</svg>
