<svg width="40" height="40" viewBox="0 0 40 40" fill="none" xmlns="http://www.w3.org/2000/svg">
<g clip-path="url(#clip0_1_83)">
<path d="M20 40V18.6667M20 20V28M20 20C20 17.171 18.8762 14.4579 16.8758 12.4575C14.8755 10.4571 12.1623 9.33333 9.33337 9.33333H1.33337V17.3333C1.33337 20.1623 2.45718 22.8754 4.45757 24.8758C6.45796 26.8762 9.17106 28 12 28H20M20 20H28C30.829 20 33.5421 18.8762 35.5425 16.8758C37.5429 14.8754 38.6667 12.1623 38.6667 9.33333V1.33333H30.6667C27.8377 1.33333 25.1246 2.45713 23.1242 4.45752C21.1238 6.45791 20 9.17102 20 12V20ZM20 20L30.6667 9.33333M20 28L9.33337 17.3333" stroke="black"/>
</g>
<defs>
<clipPath id="clip0_1_83">
<rect width="40" height="40" fill="white"/>
</clipPath>
</defs>
</svg>
