<svg width="40" height="40" viewBox="0 0 40 40" fill="none" xmlns="http://www.w3.org/2000/svg">
<path d="M20 20C21.7682 20 23.4638 19.2976 24.7141 18.0474C25.9643 16.7971 26.6667 15.1014 26.6667 13.3333C26.6667 11.5652 25.9643 9.86952 24.7141 8.61928C23.4638 7.36904 21.7682 6.66666 20 6.66666C18.2319 6.66666 16.5362 7.36904 15.286 8.61928C14.0358 9.86952 13.3334 11.5652 13.3334 13.3333C13.3334 15.1014 14.0358 16.7971 15.286 18.0474C16.5362 19.2976 18.2319 20 20 20Z" stroke="black" stroke-width="1.5" stroke-linecap="round" stroke-linejoin="round"/>
<path d="M8.33337 33.3333V31.6667C8.33297 29.6983 8.8306 27.7618 9.77993 26.0375C10.7293 24.3132 12.0995 22.8571 13.7629 21.8048C15.4264 20.7525 17.3291 20.1381 19.2939 20.019C21.2586 19.8998 23.2216 20.2797 25 21.1233M27.725 27.3583L29.4567 23.6867C29.5036 23.5817 29.5798 23.4926 29.6762 23.43C29.7726 23.3675 29.8851 23.3342 30 23.3342C30.115 23.3342 30.2274 23.3675 30.3239 23.43C30.4203 23.4926 30.4965 23.5817 30.5434 23.6867L32.2767 27.3583L36.1484 27.9517C36.645 28.0267 36.8417 28.6667 36.4817 29.0333L33.6817 31.8883L34.3417 35.9233C34.4267 36.4417 33.9084 36.8367 33.4634 36.5917L30 34.6867L26.5367 36.5917C26.0917 36.8367 25.5734 36.4417 25.6584 35.925L26.3184 31.8883L23.5184 29.0333C23.1584 28.6667 23.355 28.0267 23.8517 27.95L27.725 27.3583Z" stroke="black" stroke-width="1.5" stroke-linecap="round" stroke-linejoin="round"/>
</svg>
